# MagicaVoxel @ Ephtracy

# group
o yellow-keycard

# material
mtllib yellow-keycard-0-yellow-keycard.mtl
usemtl palette

# normals
vn -1 0 0
vn 1 0 0
vn 0 0 1
vn 0 0 -1
vn 0 -1 0
vn 0 1 0

# texcoords
vt 0.0136719 0.5
vt 0.177734 0.5
vt 0.181641 0.5
vt 0.251953 0.5
vt 0.373047 0.5
vt 0.876953 0.5

# verts
v -0.4 0 0.4
v -0.4 0 -0.2
v -0.4 0.1 0.4
v -0.4 0.1 -0.2
v -0.3 0 -0.2
v -0.3 0 -0.3
v -0.3 0.1 -0.2
v -0.3 0.1 -0.3
v -0.1 0 -0.3
v -0.1 0 -0.4
v -0.1 0.1 -0.3
v -0.1 0.1 -0.4
v 0.2 0 0
v 0.2 0 -0.4
v 0.2 0.1 0
v 0.2 0.1 -0.4
v 0.4 0 0.4
v 0.4 0 0
v 0.4 0.1 0.4
v 0.4 0.1 0
v -0.4 0 0.4
v -0.4 0.1 0.4
v 0.4 0 0.4
v 0.4 0.1 0.4
v 0.2 0 0
v 0.2 0.1 0
v 0.4 0 0
v 0.4 0.1 0
v -0.4 0 -0.2
v -0.4 0.1 -0.2
v -0.3 0 -0.2
v -0.3 0.1 -0.2
v -0.3 0 -0.3
v -0.3 0.1 -0.3
v -0.1 0 -0.3
v -0.1 0.1 -0.3
v -0.1 0 -0.4
v -0.1 0.1 -0.4
v 0.2 0 -0.4
v 0.2 0.1 -0.4
v -0.4 0 0.4
v 0.4 0 0.4
v -0.3 0 0.3
v -0.2 0 0.3
v 0.2 0 0.3
v 0.3 0 0.3
v -0.3 0 0.2
v -0.2 0 0.2
v 0 0 0.2
v 0.1 0 0.2
v 0.2 0 0.2
v 0.3 0 0.2
v -0.3 0 0.1
v -0.2 0 0.1
v 0 0 0.1
v 0.1 0 0.1
v 0.3 0 0.1
v -0.3 0 0
v -0.2 0 0
v -0.1 0 0
v 0.2 0 0
v 0.4 0 0
v -0.3 0 -0.1
v -0.2 0 -0.1
v -0.1 0 -0.1
v 0 0 -0.1
v 0.1 0 -0.1
v -0.4 0 -0.2
v -0.3 0 -0.2
v -0.2 0 -0.2
v -0.1 0 -0.2
v 0 0 -0.2
v 0.1 0 -0.2
v -0.3 0 -0.3
v -0.1 0 -0.3
v 0 0 -0.3
v 0.1 0 -0.3
v -0.1 0 -0.4
v 0.2 0 -0.4
v -0.4 0.1 0.4
v 0.4 0.1 0.4
v -0.3 0.1 0.3
v -0.2 0.1 0.3
v 0.2 0.1 0.3
v 0.3 0.1 0.3
v -0.3 0.1 0.2
v -0.2 0.1 0.2
v 0 0.1 0.2
v 0.1 0.1 0.2
v 0.2 0.1 0.2
v 0.3 0.1 0.2
v -0.3 0.1 0.1
v -0.2 0.1 0.1
v 0 0.1 0.1
v 0.1 0.1 0.1
v 0.3 0.1 0.1
v -0.3 0.1 0
v -0.2 0.1 0
v -0.1 0.1 0
v 0.2 0.1 0
v 0.4 0.1 0
v -0.3 0.1 -0.1
v -0.2 0.1 -0.1
v -0.1 0.1 -0.1
v 0 0.1 -0.1
v 0.1 0.1 -0.1
v -0.4 0.1 -0.2
v -0.3 0.1 -0.2
v -0.2 0.1 -0.2
v -0.1 0.1 -0.2
v 0 0.1 -0.2
v 0.1 0.1 -0.2
v -0.3 0.1 -0.3
v -0.1 0.1 -0.3
v 0 0.1 -0.3
v 0.1 0.1 -0.3
v -0.1 0.1 -0.4
v 0.2 0.1 -0.4

# faces
f 3/6/1 2/6/1 1/6/1
f 4/6/1 2/6/1 3/6/1
f 7/6/1 6/6/1 5/6/1
f 8/6/1 6/6/1 7/6/1
f 11/6/1 10/6/1 9/6/1
f 12/6/1 10/6/1 11/6/1
f 13/6/2 14/6/2 15/6/2
f 15/6/2 14/6/2 16/6/2
f 17/6/2 18/6/2 19/6/2
f 19/6/2 18/6/2 20/6/2
f 23/6/3 22/6/3 21/6/3
f 24/6/3 22/6/3 23/6/3
f 25/6/4 26/6/4 27/6/4
f 27/6/4 26/6/4 28/6/4
f 29/6/4 30/6/4 31/6/4
f 31/6/4 30/6/4 32/6/4
f 33/6/4 34/6/4 35/6/4
f 35/6/4 34/6/4 36/6/4
f 37/6/4 38/6/4 39/6/4
f 39/6/4 38/6/4 40/6/4
f 43/6/5 42/6/5 41/6/5
f 44/6/5 42/6/5 43/6/5
f 45/6/5 42/6/5 44/6/5
f 46/6/5 42/6/5 45/6/5
f 47/6/5 43/6/5 41/6/5
f 47/5/5 44/5/5 43/5/5
f 48/3/5 45/3/5 44/3/5
f 48/5/5 44/5/5 47/5/5
f 49/3/5 45/3/5 48/3/5
f 50/3/5 45/3/5 49/3/5
f 51/5/5 46/5/5 45/5/5
f 51/3/5 45/3/5 50/3/5
f 52/6/5 42/6/5 46/6/5
f 52/5/5 46/5/5 51/5/5
f 53/6/5 47/6/5 41/6/5
f 53/4/5 48/4/5 47/4/5
f 54/3/5 49/3/5 48/3/5
f 54/4/5 48/4/5 53/4/5
f 55/5/5 50/5/5 49/5/5
f 55/3/5 49/3/5 54/3/5
f 56/3/5 51/3/5 50/3/5
f 56/5/5 50/5/5 55/5/5
f 56/3/5 52/3/5 51/3/5
f 57/6/5 42/6/5 52/6/5
f 57/3/5 52/3/5 56/3/5
f 58/3/5 55/3/5 54/3/5
f 58/3/5 54/3/5 53/3/5
f 58/3/5 56/3/5 55/3/5
f 58/6/5 53/6/5 41/6/5
f 59/3/5 56/3/5 58/3/5
f 60/3/5 56/3/5 59/3/5
f 61/6/5 57/6/5 56/6/5
f 62/6/5 42/6/5 57/6/5
f 62/6/5 57/6/5 61/6/5
f 63/6/5 58/6/5 41/6/5
f 63/4/5 59/4/5 58/4/5
f 64/2/5 60/2/5 59/2/5
f 64/4/5 59/4/5 63/4/5
f 65/3/5 56/3/5 60/3/5
f 65/2/5 60/2/5 64/2/5
f 66/3/5 56/3/5 65/3/5
f 67/6/5 61/6/5 56/6/5
f 67/3/5 56/3/5 66/3/5
f 68/6/5 63/6/5 41/6/5
f 69/2/5 64/2/5 63/2/5
f 69/6/5 63/6/5 68/6/5
f 70/1/5 65/1/5 64/1/5
f 70/2/5 64/2/5 69/2/5
f 71/3/5 66/3/5 65/3/5
f 71/1/5 65/1/5 70/1/5
f 72/2/5 67/2/5 66/2/5
f 72/3/5 66/3/5 71/3/5
f 73/6/5 61/6/5 67/6/5
f 73/2/5 67/2/5 72/2/5
f 74/6/5 70/6/5 69/6/5
f 74/6/5 71/6/5 70/6/5
f 75/2/5 72/2/5 71/2/5
f 75/6/5 71/6/5 74/6/5
f 76/1/5 73/1/5 72/1/5
f 76/2/5 72/2/5 75/2/5
f 77/6/5 61/6/5 73/6/5
f 77/1/5 73/1/5 76/1/5
f 78/6/5 76/6/5 75/6/5
f 78/6/5 77/6/5 76/6/5
f 79/6/5 61/6/5 77/6/5
f 79/6/5 77/6/5 78/6/5
f 80/6/6 81/6/6 82/6/6
f 82/6/6 81/6/6 83/6/6
f 83/6/6 81/6/6 84/6/6
f 84/6/6 81/6/6 85/6/6
f 80/6/6 82/6/6 86/6/6
f 82/5/6 83/5/6 86/5/6
f 83/3/6 84/3/6 87/3/6
f 86/5/6 83/5/6 87/5/6
f 87/3/6 84/3/6 88/3/6
f 88/3/6 84/3/6 89/3/6
f 84/5/6 85/5/6 90/5/6
f 89/3/6 84/3/6 90/3/6
f 85/6/6 81/6/6 91/6/6
f 90/5/6 85/5/6 91/5/6
f 80/6/6 86/6/6 92/6/6
f 86/4/6 87/4/6 92/4/6
f 87/3/6 88/3/6 93/3/6
f 92/4/6 87/4/6 93/4/6
f 88/5/6 89/5/6 94/5/6
f 93/3/6 88/3/6 94/3/6
f 89/3/6 90/3/6 95/3/6
f 94/5/6 89/5/6 95/5/6
f 90/3/6 91/3/6 95/3/6
f 91/6/6 81/6/6 96/6/6
f 95/3/6 91/3/6 96/3/6
f 93/3/6 94/3/6 97/3/6
f 92/3/6 93/3/6 97/3/6
f 94/3/6 95/3/6 97/3/6
f 80/6/6 92/6/6 97/6/6
f 97/3/6 95/3/6 98/3/6
f 98/3/6 95/3/6 99/3/6
f 95/6/6 96/6/6 100/6/6
f 96/6/6 81/6/6 101/6/6
f 100/6/6 96/6/6 101/6/6
f 80/6/6 97/6/6 102/6/6
f 97/4/6 98/4/6 102/4/6
f 98/2/6 99/2/6 103/2/6
f 102/4/6 98/4/6 103/4/6
f 99/3/6 95/3/6 104/3/6
f 103/2/6 99/2/6 104/2/6
f 104/3/6 95/3/6 105/3/6
f 95/6/6 100/6/6 106/6/6
f 105/3/6 95/3/6 106/3/6
f 80/6/6 102/6/6 107/6/6
f 102/2/6 103/2/6 108/2/6
f 107/6/6 102/6/6 108/6/6
f 103/1/6 104/1/6 109/1/6
f 108/2/6 103/2/6 109/2/6
f 104/3/6 105/3/6 110/3/6
f 109/1/6 104/1/6 110/1/6
f 105/2/6 106/2/6 111/2/6
f 110/3/6 105/3/6 111/3/6
f 106/6/6 100/6/6 112/6/6
f 111/2/6 106/2/6 112/2/6
f 108/6/6 109/6/6 113/6/6
f 109/6/6 110/6/6 113/6/6
f 110/2/6 111/2/6 114/2/6
f 113/6/6 110/6/6 114/6/6
f 111/1/6 112/1/6 115/1/6
f 114/2/6 111/2/6 115/2/6
f 112/6/6 100/6/6 116/6/6
f 115/1/6 112/1/6 116/1/6
f 114/6/6 115/6/6 117/6/6
f 115/6/6 116/6/6 117/6/6
f 116/6/6 100/6/6 118/6/6
f 117/6/6 116/6/6 118/6/6
