# Blender 4.0.2
# www.blender.org
mtllib space_rock0.mtl
o MeshInstance3D
v -0.125000 0.125000 0.125000
v 0.125000 0.125000 -0.125000
v 0.125000 0.125000 0.125000
v -0.125000 0.125000 -0.125000
v -0.125000 -0.125000 0.125000
v 0.125000 -0.125000 -0.125000
v 0.125000 -0.125000 0.125000
v -0.125000 -0.125000 -0.125000
v 0.125000 0.125000 0.125000
v -0.125000 0.125000 -0.125000
v 0.125000 0.125000 -0.125000
v -0.125000 0.125000 0.125000
v 0.125000 -0.125000 0.125000
v -0.125000 -0.125000 -0.125000
v 0.125000 -0.125000 -0.125000
v -0.125000 -0.125000 0.125000
v 0.125000 0.125000 0.125000
v -0.125000 -0.125000 0.125000
v -0.125000 0.125000 0.125000
v 0.125000 -0.125000 0.125000
v 0.125000 0.125000 -0.125000
v -0.125000 -0.125000 -0.125000
v -0.125000 0.125000 -0.125000
v 0.125000 -0.125000 -0.125000
vn -0.0000 -0.0000 1.0000
vn -0.0000 -0.0000 -1.0000
vn 1.0000 -0.0000 -0.0000
vn -1.0000 -0.0000 -0.0000
vn -0.0000 1.0000 -0.0000
vn -0.0000 -1.0000 -0.0000
vt 0.000000 0.500000
vt 0.333333 1.000000
vt 0.000000 1.000000
vt 0.333333 0.500000
vt 0.666667 0.500000
vt 1.000000 1.000000
vt 0.666667 1.000000
vt 1.000000 0.500000
vt 0.000000 0.000000
vt 0.333333 0.000000
vt 0.666667 0.000000
vt 1.000000 0.000000
s 0
usemtl Material_0
f 5/1/1 3/2/1 1/3/1
f 5/1/1 7/4/1 3/2/1
f 6/5/2 4/6/2 2/7/2
f 6/5/2 8/8/2 4/6/2
f 13/4/3 11/7/3 9/2/3
f 13/4/3 15/5/3 11/7/3
f 14/9/4 12/4/4 10/1/4
f 14/9/4 16/10/4 12/4/4
f 21/10/5 19/5/5 17/4/5
f 21/10/5 23/11/5 19/5/5
f 22/11/6 20/8/6 18/5/6
f 22/11/6 24/12/6 20/8/6
o MeshInstance3D2
v -0.062500 0.062500 0.204222
v 0.062500 0.062500 0.079222
v 0.062500 0.062500 0.204222
v -0.062500 0.062500 0.079222
v -0.062500 -0.062500 0.204222
v 0.062500 -0.062500 0.079222
v 0.062500 -0.062500 0.204222
v -0.062500 -0.062500 0.079222
v 0.062500 0.062500 0.204222
v -0.062500 0.062500 0.079222
v 0.062500 0.062500 0.079222
v -0.062500 0.062500 0.204222
v 0.062500 -0.062500 0.204222
v -0.062500 -0.062500 0.079222
v 0.062500 -0.062500 0.079222
v -0.062500 -0.062500 0.204222
v 0.062500 0.062500 0.204222
v -0.062500 -0.062500 0.204222
v -0.062500 0.062500 0.204222
v 0.062500 -0.062500 0.204222
v 0.062500 0.062500 0.079222
v -0.062500 -0.062500 0.079222
v -0.062500 0.062500 0.079222
v 0.062500 -0.062500 0.079222
vn -0.0000 -0.0000 1.0000
vn -0.0000 -0.0000 -1.0000
vn 1.0000 -0.0000 -0.0000
vn -1.0000 -0.0000 -0.0000
vn -0.0000 1.0000 -0.0000
vn -0.0000 -1.0000 -0.0000
vt 0.000000 0.500000
vt 0.333333 1.000000
vt 0.000000 1.000000
vt 0.333333 0.500000
vt 0.666667 0.500000
vt 1.000000 1.000000
vt 0.666667 1.000000
vt 1.000000 0.500000
vt 0.000000 0.000000
vt 0.333333 0.000000
vt 0.666667 0.000000
vt 1.000000 0.000000
s 0
usemtl Material_1
f 29/13/7 27/14/7 25/15/7
f 29/13/7 31/16/7 27/14/7
f 30/17/8 28/18/8 26/19/8
f 30/17/8 32/20/8 28/18/8
f 37/16/9 35/19/9 33/14/9
f 37/16/9 39/17/9 35/19/9
f 38/21/10 36/16/10 34/13/10
f 38/21/10 40/22/10 36/16/10
f 45/22/11 43/17/11 41/16/11
f 45/22/11 47/23/11 43/17/11
f 46/23/12 44/20/12 42/17/12
f 46/23/12 48/24/12 44/20/12
o MeshInstance3D3
v 0.054658 0.062500 0.071677
v 0.179658 0.062500 -0.053323
v 0.179658 0.062500 0.071677
v 0.054658 0.062500 -0.053323
v 0.054658 -0.062500 0.071677
v 0.179658 -0.062500 -0.053323
v 0.179658 -0.062500 0.071677
v 0.054658 -0.062500 -0.053323
v 0.179658 0.062500 0.071677
v 0.054658 0.062500 -0.053323
v 0.179658 0.062500 -0.053323
v 0.054658 0.062500 0.071677
v 0.179658 -0.062500 0.071677
v 0.054658 -0.062500 -0.053323
v 0.179658 -0.062500 -0.053323
v 0.054658 -0.062500 0.071677
v 0.179658 0.062500 0.071677
v 0.054658 -0.062500 0.071677
v 0.054658 0.062500 0.071677
v 0.179658 -0.062500 0.071677
v 0.179658 0.062500 -0.053323
v 0.054658 -0.062500 -0.053323
v 0.054658 0.062500 -0.053323
v 0.179658 -0.062500 -0.053323
vn -0.0000 -0.0000 1.0000
vn -0.0000 -0.0000 -1.0000
vn 1.0000 -0.0000 -0.0000
vn -1.0000 -0.0000 -0.0000
vn -0.0000 1.0000 -0.0000
vn -0.0000 -1.0000 -0.0000
vt 0.000000 0.500000
vt 0.333333 1.000000
vt 0.000000 1.000000
vt 0.333333 0.500000
vt 0.666667 0.500000
vt 1.000000 1.000000
vt 0.666667 1.000000
vt 1.000000 0.500000
vt 0.000000 0.000000
vt 0.333333 0.000000
vt 0.666667 0.000000
vt 1.000000 0.000000
s 0
usemtl Material_1
f 53/25/13 51/26/13 49/27/13
f 53/25/13 55/28/13 51/26/13
f 54/29/14 52/30/14 50/31/14
f 54/29/14 56/32/14 52/30/14
f 61/28/15 59/31/15 57/26/15
f 61/28/15 63/29/15 59/31/15
f 62/33/16 60/28/16 58/25/16
f 62/33/16 64/34/16 60/28/16
f 69/34/17 67/29/17 65/28/17
f 69/34/17 71/35/17 67/29/17
f 70/35/18 68/32/18 66/29/18
f 70/35/18 72/36/18 68/32/18
o MeshInstance3D4
v -0.050480 0.062500 -0.050606
v 0.074520 0.062500 -0.175606
v 0.074520 0.062500 -0.050606
v -0.050480 0.062500 -0.175606
v -0.050480 -0.062500 -0.050606
v 0.074520 -0.062500 -0.175606
v 0.074520 -0.062500 -0.050606
v -0.050480 -0.062500 -0.175606
v 0.074520 0.062500 -0.050606
v -0.050480 0.062500 -0.175606
v 0.074520 0.062500 -0.175606
v -0.050480 0.062500 -0.050606
v 0.074520 -0.062500 -0.050606
v -0.050480 -0.062500 -0.175606
v 0.074520 -0.062500 -0.175606
v -0.050480 -0.062500 -0.050606
v 0.074520 0.062500 -0.050606
v -0.050480 -0.062500 -0.050606
v -0.050480 0.062500 -0.050606
v 0.074520 -0.062500 -0.050606
v 0.074520 0.062500 -0.175606
v -0.050480 -0.062500 -0.175606
v -0.050480 0.062500 -0.175606
v 0.074520 -0.062500 -0.175606
vn -0.0000 -0.0000 1.0000
vn -0.0000 -0.0000 -1.0000
vn 1.0000 -0.0000 -0.0000
vn -1.0000 -0.0000 -0.0000
vn -0.0000 1.0000 -0.0000
vn -0.0000 -1.0000 -0.0000
vt 0.000000 0.500000
vt 0.333333 1.000000
vt 0.000000 1.000000
vt 0.333333 0.500000
vt 0.666667 0.500000
vt 1.000000 1.000000
vt 0.666667 1.000000
vt 1.000000 0.500000
vt 0.000000 0.000000
vt 0.333333 0.000000
vt 0.666667 0.000000
vt 1.000000 0.000000
s 0
usemtl Material_1
f 77/37/19 75/38/19 73/39/19
f 77/37/19 79/40/19 75/38/19
f 78/41/20 76/42/20 74/43/20
f 78/41/20 80/44/20 76/42/20
f 85/40/21 83/43/21 81/38/21
f 85/40/21 87/41/21 83/43/21
f 86/45/22 84/40/22 82/37/22
f 86/45/22 88/46/22 84/40/22
f 93/46/23 91/41/23 89/40/23
f 93/46/23 95/47/23 91/41/23
f 94/47/24 92/44/24 90/41/24
f 94/47/24 96/48/24 92/44/24
o MeshInstance3D5
v -0.188603 0.062500 0.052869
v -0.063603 0.062500 -0.072131
v -0.063603 0.062500 0.052869
v -0.188603 0.062500 -0.072131
v -0.188603 -0.062500 0.052869
v -0.063603 -0.062500 -0.072131
v -0.063603 -0.062500 0.052869
v -0.188603 -0.062500 -0.072131
v -0.063603 0.062500 0.052869
v -0.188603 0.062500 -0.072131
v -0.063603 0.062500 -0.072131
v -0.188603 0.062500 0.052869
v -0.063603 -0.062500 0.052869
v -0.188603 -0.062500 -0.072131
v -0.063603 -0.062500 -0.072131
v -0.188603 -0.062500 0.052869
v -0.063603 0.062500 0.052869
v -0.188603 -0.062500 0.052869
v -0.188603 0.062500 0.052869
v -0.063603 -0.062500 0.052869
v -0.063603 0.062500 -0.072131
v -0.188603 -0.062500 -0.072131
v -0.188603 0.062500 -0.072131
v -0.063603 -0.062500 -0.072131
vn -0.0000 -0.0000 1.0000
vn -0.0000 -0.0000 -1.0000
vn 1.0000 -0.0000 -0.0000
vn -1.0000 -0.0000 -0.0000
vn -0.0000 1.0000 -0.0000
vn -0.0000 -1.0000 -0.0000
vt 0.000000 0.500000
vt 0.333333 1.000000
vt 0.000000 1.000000
vt 0.333333 0.500000
vt 0.666667 0.500000
vt 1.000000 1.000000
vt 0.666667 1.000000
vt 1.000000 0.500000
vt 0.000000 0.000000
vt 0.333333 0.000000
vt 0.666667 0.000000
vt 1.000000 0.000000
s 0
usemtl Material_1
f 101/49/25 99/50/25 97/51/25
f 101/49/25 103/52/25 99/50/25
f 102/53/26 100/54/26 98/55/26
f 102/53/26 104/56/26 100/54/26
f 109/52/27 107/55/27 105/50/27
f 109/52/27 111/53/27 107/55/27
f 110/57/28 108/52/28 106/49/28
f 110/57/28 112/58/28 108/52/28
f 117/58/29 115/53/29 113/52/29
f 117/58/29 119/59/29 115/53/29
f 118/59/30 116/56/30 114/53/30
f 118/59/30 120/60/30 116/56/30
o MeshInstance3D6
v -0.046273 0.164235 0.052869
v 0.078727 0.164235 -0.072131
v 0.078727 0.164235 0.052869
v -0.046273 0.164235 -0.072131
v -0.046273 0.039235 0.052869
v 0.078727 0.039235 -0.072131
v 0.078727 0.039235 0.052869
v -0.046273 0.039235 -0.072131
v 0.078727 0.164235 0.052869
v -0.046273 0.164235 -0.072131
v 0.078727 0.164235 -0.072131
v -0.046273 0.164235 0.052869
v 0.078727 0.039235 0.052869
v -0.046273 0.039235 -0.072131
v 0.078727 0.039235 -0.072131
v -0.046273 0.039235 0.052869
v 0.078727 0.164235 0.052869
v -0.046273 0.039235 0.052869
v -0.046273 0.164235 0.052869
v 0.078727 0.039235 0.052869
v 0.078727 0.164235 -0.072131
v -0.046273 0.039235 -0.072131
v -0.046273 0.164235 -0.072131
v 0.078727 0.039235 -0.072131
vn -0.0000 -0.0000 1.0000
vn -0.0000 -0.0000 -1.0000
vn 1.0000 -0.0000 -0.0000
vn -1.0000 -0.0000 -0.0000
vn -0.0000 1.0000 -0.0000
vn -0.0000 -1.0000 -0.0000
vt 0.000000 0.500000
vt 0.333333 1.000000
vt 0.000000 1.000000
vt 0.333333 0.500000
vt 0.666667 0.500000
vt 1.000000 1.000000
vt 0.666667 1.000000
vt 1.000000 0.500000
vt 0.000000 0.000000
vt 0.333333 0.000000
vt 0.666667 0.000000
vt 1.000000 0.000000
s 0
usemtl Material_1
f 125/61/31 123/62/31 121/63/31
f 125/61/31 127/64/31 123/62/31
f 126/65/32 124/66/32 122/67/32
f 126/65/32 128/68/32 124/66/32
f 133/64/33 131/67/33 129/62/33
f 133/64/33 135/65/33 131/67/33
f 134/69/34 132/64/34 130/61/34
f 134/69/34 136/70/34 132/64/34
f 141/70/35 139/65/35 137/64/35
f 141/70/35 143/71/35 139/65/35
f 142/71/36 140/68/36 138/65/36
f 142/71/36 144/72/36 140/68/36
o MeshInstance3D7
v -0.046273 -0.065338 0.052869
v 0.078727 -0.065338 -0.072131
v 0.078727 -0.065338 0.052869
v -0.046273 -0.065338 -0.072131
v -0.046273 -0.190338 0.052869
v 0.078727 -0.190338 -0.072131
v 0.078727 -0.190338 0.052869
v -0.046273 -0.190338 -0.072131
v 0.078727 -0.065338 0.052869
v -0.046273 -0.065338 -0.072131
v 0.078727 -0.065338 -0.072131
v -0.046273 -0.065338 0.052869
v 0.078727 -0.190338 0.052869
v -0.046273 -0.190338 -0.072131
v 0.078727 -0.190338 -0.072131
v -0.046273 -0.190338 0.052869
v 0.078727 -0.065338 0.052869
v -0.046273 -0.190338 0.052869
v -0.046273 -0.065338 0.052869
v 0.078727 -0.190338 0.052869
v 0.078727 -0.065338 -0.072131
v -0.046273 -0.190338 -0.072131
v -0.046273 -0.065338 -0.072131
v 0.078727 -0.190338 -0.072131
vn -0.0000 -0.0000 1.0000
vn -0.0000 -0.0000 -1.0000
vn 1.0000 -0.0000 -0.0000
vn -1.0000 -0.0000 -0.0000
vn -0.0000 1.0000 -0.0000
vn -0.0000 -1.0000 -0.0000
vt 0.000000 0.500000
vt 0.333333 1.000000
vt 0.000000 1.000000
vt 0.333333 0.500000
vt 0.666667 0.500000
vt 1.000000 1.000000
vt 0.666667 1.000000
vt 1.000000 0.500000
vt 0.000000 0.000000
vt 0.333333 0.000000
vt 0.666667 0.000000
vt 1.000000 0.000000
s 0
usemtl Material_1
f 149/73/37 147/74/37 145/75/37
f 149/73/37 151/76/37 147/74/37
f 150/77/38 148/78/38 146/79/38
f 150/77/38 152/80/38 148/78/38
f 157/76/39 155/79/39 153/74/39
f 157/76/39 159/77/39 155/79/39
f 158/81/40 156/76/40 154/73/40
f 158/81/40 160/82/40 156/76/40
f 165/82/41 163/77/41 161/76/41
f 165/82/41 167/83/41 163/77/41
f 166/83/42 164/80/42 162/77/42
f 166/83/42 168/84/42 164/80/42
