{"asset":{"version":"2.0","generator":"THREE.GLTFExporter"},"scenes":[{"name":"default","nodes":[0]}],"scene":0,"nodes":[{"mesh":0}],"bufferViews":[{"buffer":0,"byteOffset":0,"byteLength":146904,"target":34962,"byteStride":12},{"buffer":0,"byteOffset":146904,"byteLength":146904,"target":34962,"byteStride":12},{"buffer":0,"byteOffset":293808,"byteLength":97936,"target":34962,"byteStride":8},{"buffer":0,"byteOffset":391744,"byteLength":4896,"target":34963},{"buffer":0,"byteOffset":396640,"byteLength":7416,"target":34963},{"buffer":0,"byteOffset":404056,"byteLength":24996,"target":34963}],"buffers":[{"byteLength":429052,"uri":"data:application/octet-stream;base64,"}],"accessors":[{"bufferView":0,"componentType":5126,"count":12242,"max":[92,4,171.9998016357422],"min":[-252,-0.0026031213346868753,-2.2233029219748124e-14],"type":"VEC3"},{"bufferView":1,"componentType":5126,"count":12242,"max":[1,1,1],"min":[-1,-1,-1],"type":"VEC3"},{"bufferView":2,"componentType":5126,"count":12242,"max":[1,1],"min":[0,0],"type":"VEC2"},{"bufferView":3,"componentType":5123,"count":2448,"max":[1699],"min":[0],"type":"SCALAR"},{"bufferView":4,"componentType":5123,"count":3708,"max":[3976],"min":[1700],"type":"SCALAR"},{"bufferView":5,"componentType":5123,"count":12498,"max":[12241],"min":[3977],"type":"SCALAR"}],"materials":[{"pbrMetallicRoughness":{"metallicFactor":0,"roughnessFactor":1,"baseColorTexture":{"index":0}},"alphaMode":"MASK","alphaCutoff":0.01,"doubleSided":true,"name":"1"},{"pbrMetallicRoughness":{"metallicFactor":0,"roughnessFactor":1,"baseColorTexture":{"index":1}},"alphaMode":"MASK","alphaCutoff":0.01,"doubleSided":true,"name":"0"},{"pbrMetallicRoughness":{"metallicFactor":0,"roughnessFactor":1,"baseColorTexture":{"index":2}},"alphaMode":"MASK","alphaCutoff":0.01,"doubleSided":true,"name":"2"}],"textures":[{"sampler":0,"source":0,"name":"1"},{"sampler":1,"source":1,"name":"0"},{"sampler":2,"source":2,"name":"2"}],"samplers":[{"magFilter":9728,"minFilter":9728,"wrapS":33071,"wrapT":33071},{"magFilter":9728,"minFilter":9728,"wrapS":33071,"wrapT":33071},{"magFilter":9728,"minFilter":9728,"wrapS":33071,"wrapT":33071}],"images":[{"mimeType":"image/png","uri":"1.png"},{"mimeType":"image/png","uri":"0.png"},{"mimeType":"image/png","uri":"2.png"}],"meshes":[{"primitives":[{"mode":4,"attributes":{"POSITION":0,"NORMAL":1,"TEXCOORD_0":2},"indices":3,"material":0},{"mode":4,"attributes":{"POSITION":0,"NORMAL":1,"TEXCOORD_0":2},"indices":4,"material":1},{"mode":4,"attributes":{"POSITION":0,"NORMAL":1,"TEXCOORD_0":2},"indices":5,"material":2}]}]}