{"asset":{"version":"2.0","generator":"THREE.GLTFExporter"},"scenes":[{"name":"default","nodes":[0]}],"scene":0,"nodes":[{"mesh":0}],"bufferViews":[{"buffer":0,"byteOffset":0,"byteLength":124680,"target":34962,"byteStride":12},{"buffer":0,"byteOffset":124680,"byteLength":124680,"target":34962,"byteStride":12},{"buffer":0,"byteOffset":249360,"byteLength":83120,"target":34962,"byteStride":8},{"buffer":0,"byteOffset":332480,"byteLength":31196,"target":34963}],"buffers":[{"byteLength":363676,"uri":"data:application/octet-stream;base64,"}],"accessors":[{"bufferView":0,"componentType":5126,"count":10390,"max":[92,4,144],"min":[-252,-2,-8],"type":"VEC3"},{"bufferView":1,"componentType":5126,"count":10390,"max":[1,1,1],"min":[-1,-0.00010013242717832327,-1],"type":"VEC3"},{"bufferView":2,"componentType":5126,"count":10390,"max":[1,0.875],"min":[0,0],"type":"VEC2"},{"bufferView":3,"componentType":5123,"count":15597,"max":[10389],"min":[0],"type":"SCALAR"}],"materials":[{"pbrMetallicRoughness":{"metallicFactor":0,"roughnessFactor":1,"baseColorTexture":{"index":0}},"alphaMode":"MASK","alphaCutoff":0.01,"doubleSided":true,"name":"2"}],"textures":[{"sampler":0,"source":0,"name":"2"}],"samplers":[{"magFilter":9728,"minFilter":9728,"wrapS":33071,"wrapT":33071}],"images":[{"mimeType":"image/png","uri":"2.png"}],"meshes":[{"primitives":[{"mode":4,"attributes":{"POSITION":0,"NORMAL":1,"TEXCOORD_0":2},"indices":3,"material":0}]}]}