{"asset":{"version":"2.0","generator":"THREE.GLTFExporter"},"scenes":[{"name":"default","nodes":[0]}],"scene":0,"nodes":[{"name":"Object 24121","extras":{"data":{"name":"Object 24121","points":[{"name":"Origin","pos":{"x":0,"y":0,"z":0}}],"billboard":{"enabled":false,"y":false},"directional":{"enabled":false,"mode":"cameraAngle","angles":[]},"custom":[],"instances":[{"name":"Object 24121","uuid":"959D51EA-4DD0-4E0A-8A57-A39F3844C167","parent":null,"pos":{"x":-63,"y":2,"z":19},"rot":{"x":0,"y":0,"z":0,"order":"XYZ"},"sca":{"x":1,"y":1,"z":1},"custom":[]}]}},"mesh":0}],"bufferViews":[{"buffer":0,"byteOffset":0,"byteLength":50904,"target":34962,"byteStride":12},{"buffer":0,"byteOffset":50904,"byteLength":50904,"target":34962,"byteStride":12},{"buffer":0,"byteOffset":101808,"byteLength":33936,"target":34962,"byteStride":8},{"buffer":0,"byteOffset":135744,"byteLength":12624,"target":34963}],"buffers":[{"byteLength":148368,"uri":"data:application/octet-stream;base64,"}],"accessors":[{"bufferView":0,"componentType":5126,"count":4242,"max":[344,0.009613037109375,64],"min":[0,-0.001979827880859375,-83.9906005859375],"type":"VEC3"},{"bufferView":1,"componentType":5126,"count":4242,"max":[0.0000903719846974127,1,0.0001871958957053721],"min":[-0.00008869908924680203,1,0],"type":"VEC3"},{"bufferView":2,"componentType":5126,"count":4242,"max":[1,1],"min":[0,0.75],"type":"VEC2"},{"bufferView":3,"componentType":5123,"count":6312,"max":[4241],"min":[0],"type":"SCALAR"}],"materials":[{"pbrMetallicRoughness":{"metallicFactor":0,"roughnessFactor":1,"baseColorTexture":{"index":0}},"alphaMode":"MASK","alphaCutoff":0.01,"doubleSided":true,"name":"2"}],"textures":[{"sampler":0,"source":0,"name":"2"}],"samplers":[{"magFilter":9728,"minFilter":9728,"wrapS":33071,"wrapT":33071}],"images":[{"mimeType":"image/png","uri":"2.png"}],"meshes":[{"primitives":[{"mode":4,"attributes":{"POSITION":0,"NORMAL":1,"TEXCOORD_0":2},"indices":3,"material":0}]}]}