{"asset":{"version":"2.0","generator":"THREE.GLTFExporter"},"scenes":[{"name":"default","nodes":[0]}],"scene":0,"nodes":[{"name":"ceiling","extras":{"data":{"name":"ceiling","points":[{"name":"Origin","pos":{"x":0,"y":0,"z":0}}],"billboard":{"enabled":false,"y":false},"directional":{"enabled":false,"mode":"cameraAngle","angles":[]},"custom":[],"instances":[{"name":"ceiling","uuid":"39226D48-C465-48F7-A34E-44AB56427D54","parent":null,"pos":{"x":18,"y":2,"z":73.5},"rot":{"x":0,"y":0,"z":0,"order":"XYZ"},"sca":{"x":1,"y":1,"z":1},"custom":[]}]}},"mesh":0}],"bufferViews":[{"buffer":0,"byteOffset":0,"byteLength":76704,"target":34962,"byteStride":12},{"buffer":0,"byteOffset":76704,"byteLength":76704,"target":34962,"byteStride":12},{"buffer":0,"byteOffset":153408,"byteLength":51136,"target":34962,"byteStride":8},{"buffer":0,"byteOffset":204544,"byteLength":18552,"target":34963}],"buffers":[{"byteLength":223096,"uri":"data:application/octet-stream;base64,"}],"accessors":[{"bufferView":0,"componentType":5126,"count":6392,"max":[68,0.000446319580078125,96],"min":[-96,-0.015128612518310547,-332.00018310546875],"type":"VEC3"},{"bufferView":1,"componentType":5126,"count":6392,"max":[0.0034287807065993547,1,0.0035282231401652098],"min":[-0.003418293548747897,0.9999879002571106,-0.003237876109778881],"type":"VEC3"},{"bufferView":2,"componentType":5126,"count":6392,"max":[1,1],"min":[0,0.75],"type":"VEC2"},{"bufferView":3,"componentType":5123,"count":9276,"max":[6391],"min":[0],"type":"SCALAR"}],"materials":[{"pbrMetallicRoughness":{"metallicFactor":0,"roughnessFactor":1,"baseColorTexture":{"index":0}},"alphaMode":"MASK","alphaCutoff":0.01,"doubleSided":true,"name":"2"}],"textures":[{"sampler":0,"source":0,"name":"2"}],"samplers":[{"magFilter":9728,"minFilter":9728,"wrapS":33071,"wrapT":33071}],"images":[{"mimeType":"image/png","uri":"2.png"}],"meshes":[{"primitives":[{"mode":4,"attributes":{"POSITION":0,"NORMAL":1,"TEXCOORD_0":2},"indices":3,"material":0}]}]}