{"asset":{"version":"2.0","generator":"THREE.GLTFExporter"},"scenes":[{"name":"default","nodes":[0]}],"scene":0,"nodes":[{"mesh":0}],"bufferViews":[{"buffer":0,"byteOffset":0,"byteLength":177696,"target":34962,"byteStride":12},{"buffer":0,"byteOffset":177696,"byteLength":177696,"target":34962,"byteStride":12},{"buffer":0,"byteOffset":355392,"byteLength":118464,"target":34962,"byteStride":8},{"buffer":0,"byteOffset":473856,"byteLength":24,"target":34963},{"buffer":0,"byteOffset":473880,"byteLength":42468,"target":34963}],"buffers":[{"byteLength":516348,"uri":"data:application/octet-stream;base64,"}],"accessors":[{"bufferView":0,"componentType":5126,"count":14808,"max":[140,4.001628398895264,392],"min":[-44,-0.023991601541638374,-36.00019836425781],"type":"VEC3"},{"bufferView":1,"componentType":5126,"count":14808,"max":[1,1,1],"min":[-1,-0.003337849397212267,-1],"type":"VEC3"},{"bufferView":2,"componentType":5126,"count":14808,"max":[1,0.875],"min":[0,-0.03125],"type":"VEC2"},{"bufferView":3,"componentType":5123,"count":12,"max":[3],"min":[0],"type":"SCALAR"},{"bufferView":4,"componentType":5123,"count":21234,"max":[14807],"min":[4],"type":"SCALAR"}],"materials":[{"pbrMetallicRoughness":{"metallicFactor":0,"roughnessFactor":1,"baseColorTexture":{"index":0}},"alphaMode":"MASK","alphaCutoff":0.01,"doubleSided":true,"name":"0"},{"pbrMetallicRoughness":{"metallicFactor":0,"roughnessFactor":1,"baseColorTexture":{"index":1}},"alphaMode":"MASK","alphaCutoff":0.01,"doubleSided":true,"name":"2"}],"textures":[{"sampler":0,"source":0,"name":"0"},{"sampler":1,"source":1,"name":"2"}],"samplers":[{"magFilter":9728,"minFilter":9728,"wrapS":33071,"wrapT":33071},{"magFilter":9728,"minFilter":9728,"wrapS":33071,"wrapT":33071}],"images":[{"mimeType":"image/png","uri":"0.png"},{"mimeType":"image/png","uri":"2.png"}],"meshes":[{"primitives":[{"mode":4,"attributes":{"POSITION":0,"NORMAL":1,"TEXCOORD_0":2},"indices":3,"material":0},{"mode":4,"attributes":{"POSITION":0,"NORMAL":1,"TEXCOORD_0":2},"indices":4,"material":1}]}]}