{"asset":{"version":"2.0","generator":"THREE.GLTFExporter"},"scenes":[{"name":"default","nodes":[0]}],"scene":0,"nodes":[{"mesh":0}],"bufferViews":[{"buffer":0,"byteOffset":0,"byteLength":136680,"target":34962,"byteStride":12},{"buffer":0,"byteOffset":136680,"byteLength":136680,"target":34962,"byteStride":12},{"buffer":0,"byteOffset":273360,"byteLength":91120,"target":34962,"byteStride":8},{"buffer":0,"byteOffset":364480,"byteLength":24,"target":34963},{"buffer":0,"byteOffset":364504,"byteLength":34416,"target":34963}],"buffers":[{"byteLength":398920,"uri":"data:application/octet-stream;base64,"}],"accessors":[{"bufferView":0,"componentType":5126,"count":11390,"max":[140,4,390],"min":[-44,-4.608332049294006e-10,-38],"type":"VEC3"},{"bufferView":1,"componentType":5126,"count":11390,"max":[1,1,1],"min":[-1,-4.054901057968617e-22,-1],"type":"VEC3"},{"bufferView":2,"componentType":5126,"count":11390,"max":[1,0.875],"min":[0,-0.03125],"type":"VEC2"},{"bufferView":3,"componentType":5123,"count":12,"max":[3],"min":[0],"type":"SCALAR"},{"bufferView":4,"componentType":5123,"count":17208,"max":[11389],"min":[4],"type":"SCALAR"}],"materials":[{"pbrMetallicRoughness":{"metallicFactor":0,"roughnessFactor":1,"baseColorTexture":{"index":0}},"alphaMode":"MASK","alphaCutoff":0.01,"doubleSided":true,"name":"0"},{"pbrMetallicRoughness":{"metallicFactor":0,"roughnessFactor":1,"baseColorTexture":{"index":1}},"alphaMode":"MASK","alphaCutoff":0.01,"doubleSided":true,"name":"2"}],"textures":[{"sampler":0,"source":0,"name":"0"},{"sampler":1,"source":1,"name":"2"}],"samplers":[{"magFilter":9728,"minFilter":9728,"wrapS":33071,"wrapT":33071},{"magFilter":9728,"minFilter":9728,"wrapS":33071,"wrapT":33071}],"images":[{"mimeType":"image/png","uri":"0.png"},{"mimeType":"image/png","uri":"2.png"}],"meshes":[{"primitives":[{"mode":4,"attributes":{"POSITION":0,"NORMAL":1,"TEXCOORD_0":2},"indices":3,"material":0},{"mode":4,"attributes":{"POSITION":0,"NORMAL":1,"TEXCOORD_0":2},"indices":4,"material":1}]}]}