{"asset":{"version":"2.0","generator":"THREE.GLTFExporter"},"scenes":[{"name":"default","nodes":[0]}],"scene":0,"nodes":[{"mesh":0}],"bufferViews":[{"buffer":0,"byteOffset":0,"byteLength":143436,"target":34962,"byteStride":12},{"buffer":0,"byteOffset":143436,"byteLength":143436,"target":34962,"byteStride":12},{"buffer":0,"byteOffset":286872,"byteLength":95624,"target":34962,"byteStride":8},{"buffer":0,"byteOffset":382496,"byteLength":2544,"target":34963},{"buffer":0,"byteOffset":385040,"byteLength":7824,"target":34963},{"buffer":0,"byteOffset":392864,"byteLength":26388,"target":34963}],"buffers":[{"byteLength":419252,"uri":"data:application/octet-stream;base64,"}],"accessors":[{"bufferView":0,"componentType":5126,"count":11953,"max":[132,4,318],"min":[-44,-4.5110129520686826e-10,-38],"type":"VEC3"},{"bufferView":1,"componentType":5126,"count":11953,"max":[1,1,1],"min":[-1,-0.001151544856838882,-1],"type":"VEC3"},{"bufferView":2,"componentType":5126,"count":11953,"max":[1,1],"min":[0,-0.03125],"type":"VEC2"},{"bufferView":3,"componentType":5123,"count":1272,"max":[884],"min":[0],"type":"SCALAR"},{"bufferView":4,"componentType":5123,"count":3912,"max":[3374],"min":[885],"type":"SCALAR"},{"bufferView":5,"componentType":5123,"count":13194,"max":[11952],"min":[3375],"type":"SCALAR"}],"materials":[{"pbrMetallicRoughness":{"metallicFactor":0,"roughnessFactor":1,"baseColorTexture":{"index":0}},"alphaMode":"MASK","alphaCutoff":0.01,"doubleSided":true,"name":"1"},{"pbrMetallicRoughness":{"metallicFactor":0,"roughnessFactor":1,"baseColorTexture":{"index":1}},"alphaMode":"MASK","alphaCutoff":0.01,"doubleSided":true,"name":"0"},{"pbrMetallicRoughness":{"metallicFactor":0,"roughnessFactor":1,"baseColorTexture":{"index":2}},"alphaMode":"MASK","alphaCutoff":0.01,"doubleSided":true,"name":"2"}],"textures":[{"sampler":0,"source":0,"name":"1"},{"sampler":1,"source":1,"name":"0"},{"sampler":2,"source":2,"name":"2"}],"samplers":[{"magFilter":9728,"minFilter":9728,"wrapS":33071,"wrapT":33071},{"magFilter":9728,"minFilter":9728,"wrapS":33071,"wrapT":33071},{"magFilter":9728,"minFilter":9728,"wrapS":33071,"wrapT":33071}],"images":[{"mimeType":"image/png","uri":"1.png"},{"mimeType":"image/png","uri":"0.png"},{"mimeType":"image/png","uri":"2.png"}],"meshes":[{"primitives":[{"mode":4,"attributes":{"POSITION":0,"NORMAL":1,"TEXCOORD_0":2},"indices":3,"material":0},{"mode":4,"attributes":{"POSITION":0,"NORMAL":1,"TEXCOORD_0":2},"indices":4,"material":1},{"mode":4,"attributes":{"POSITION":0,"NORMAL":1,"TEXCOORD_0":2},"indices":5,"material":2}]}]}