{"asset":{"version":"2.0","generator":"THREE.GLTFExporter"},"scenes":[{"name":"default","nodes":[0]}],"scene":0,"nodes":[{"name":"Object 39703","extras":{"data":{"name":"Object 39703","points":[{"name":"Origin","pos":{"x":0,"y":0,"z":0}}],"billboard":{"enabled":false,"y":false},"directional":{"enabled":false,"mode":"cameraAngle","angles":[]},"custom":[],"instances":[{"name":"Object 39703","uuid":"DE028DB4-1674-4A32-AB87-C963C6D5A6D5","parent":null,"pos":{"x":28,"y":1,"z":15.5},"rot":{"x":0,"y":0,"z":0,"order":"XYZ"},"sca":{"x":1,"y":1,"z":1},"custom":[]}]}},"mesh":0}],"bufferViews":[{"buffer":0,"byteOffset":0,"byteLength":76464,"target":34962,"byteStride":12},{"buffer":0,"byteOffset":76464,"byteLength":76464,"target":34962,"byteStride":12},{"buffer":0,"byteOffset":152928,"byteLength":50976,"target":34962,"byteStride":8},{"buffer":0,"byteOffset":203904,"byteLength":18516,"target":34963}],"buffers":[{"byteLength":222420,"uri":"data:application/octet-stream;base64,"}],"accessors":[{"bufferView":0,"componentType":5126,"count":6372,"max":[28,4.000385284423828,328],"min":[-136,3.9848713874816895,-100.00019836425781],"type":"VEC3"},{"bufferView":1,"componentType":5126,"count":6372,"max":[0.0034287807065993547,1,0.0035282231401652098],"min":[-0.003418293548747897,0.9999879002571106,-0.003237876109778881],"type":"VEC3"},{"bufferView":2,"componentType":5126,"count":6372,"max":[1,1],"min":[0,0.75],"type":"VEC2"},{"bufferView":3,"componentType":5123,"count":9258,"max":[6371],"min":[0],"type":"SCALAR"}],"materials":[{"pbrMetallicRoughness":{"metallicFactor":0,"roughnessFactor":1,"baseColorTexture":{"index":0}},"alphaMode":"MASK","alphaCutoff":0.01,"doubleSided":true,"name":"2"}],"textures":[{"sampler":0,"source":0,"name":"2"}],"samplers":[{"magFilter":9728,"minFilter":9728,"wrapS":33071,"wrapT":33071}],"images":[{"mimeType":"image/png","uri":"2.png"}],"meshes":[{"primitives":[{"mode":4,"attributes":{"POSITION":0,"NORMAL":1,"TEXCOORD_0":2},"indices":3,"material":0}]}]}