{"asset":{"version":"2.0","generator":"THREE.GLTFExporter"},"scenes":[{"name":"default","nodes":[0]}],"scene":0,"nodes":[{"name":"Object 26225","extras":{"data":{"name":"Object 26225","points":[{"name":"Origin","pos":{"x":0,"y":0,"z":0}}],"billboard":{"enabled":false,"y":false},"directional":{"enabled":false,"mode":"cameraAngle","angles":[]},"custom":[],"instances":[{"name":"Object 26225","uuid":"B16604EB-8467-4906-9F8A-DB29CA6B35F1","parent":null,"pos":{"x":18,"y":0,"z":60},"rot":{"x":0,"y":0,"z":0,"order":"XYZ"},"sca":{"x":1,"y":1,"z":1},"custom":[]}]}},"mesh":0}],"bufferViews":[{"buffer":0,"byteOffset":0,"byteLength":75516,"target":34962,"byteStride":12},{"buffer":0,"byteOffset":75516,"byteLength":75516,"target":34962,"byteStride":12},{"buffer":0,"byteOffset":151032,"byteLength":50344,"target":34962,"byteStride":8},{"buffer":0,"byteOffset":201376,"byteLength":18444,"target":34963}],"buffers":[{"byteLength":219820,"uri":"data:application/octet-stream;base64,"}],"accessors":[{"bufferView":0,"componentType":5126,"count":6293,"max":[68,8.000601768493652,152],"min":[-96,7.9848713874816895,-276.00018310546875],"type":"VEC3"},{"bufferView":1,"componentType":5126,"count":6293,"max":[0.0025947492104023695,1,0.002738570561632514],"min":[-0.0023079626262187958,0.9999929070472717,-0.0024342346005141735],"type":"VEC3"},{"bufferView":2,"componentType":5126,"count":6293,"max":[1,1],"min":[0,0.75],"type":"VEC2"},{"bufferView":3,"componentType":5123,"count":9222,"max":[6292],"min":[0],"type":"SCALAR"}],"materials":[{"pbrMetallicRoughness":{"metallicFactor":0,"roughnessFactor":1,"baseColorTexture":{"index":0}},"alphaMode":"MASK","alphaCutoff":0.01,"doubleSided":true,"name":"2"}],"textures":[{"sampler":0,"source":0,"name":"2"}],"samplers":[{"magFilter":9728,"minFilter":9728,"wrapS":33071,"wrapT":33071}],"images":[{"mimeType":"image/png","uri":"2.png"}],"meshes":[{"primitives":[{"mode":4,"attributes":{"POSITION":0,"NORMAL":1,"TEXCOORD_0":2},"indices":3,"material":0}]}]}