{"accessors":[{"bufferView":0,"byteOffset":0,"componentType":5126,"count":252,"max":[0.6,0.6,0.6],"min":[-0.6,-0.6,-0.6],"normalized":false,"type":"VEC3"},{"bufferView":1,"byteOffset":0,"componentType":5126,"count":252,"max":[0,0,0.000076,-1],"min":[-1,-1,-1,-1],"normalized":false,"type":"VEC4"},{"bufferView":2,"byteOffset":0,"componentType":5126,"count":252,"max":[1,1,1],"min":[-1,-1,-1],"normalized":false,"type":"VEC3"},{"bufferView":3,"byteOffset":0,"componentType":5126,"count":252,"max":[1,1],"min":[0,0],"normalized":false,"type":"VEC2"},{"bufferView":4,"byteOffset":0,"componentType":5125,"count":252,"max":[251],"min":[0],"normalized":false,"type":"SCALAR"}],"asset":{"generator":"Godot Engine v4.2.1.stable.official@b09f793f564a6c95dc76acc654b390e68441bd01","version":"2.0"},"bufferViews":[{"buffer":0,"byteLength":3024,"byteOffset":0},{"buffer":0,"byteLength":4032,"byteOffset":3024},{"buffer":0,"byteLength":3024,"byteOffset":7056},{"buffer":0,"byteLength":2016,"byteOffset":10080},{"buffer":0,"byteLength":1008,"byteOffset":12096}],"buffers":[{"byteLength":13104,"uri":"bomb_glow0.bin"}],"extensionsUsed":["GODOT_single_root"],"materials":[{"extensions":{},"pbrMetallicRoughness":{"baseColorFactor":[0.99999988079071,0.99999988079071,0.99999988079071,1],"metallicFactor":0,"roughnessFactor":1}}],"meshes":[{"extras":{"targetNames":[]},"primitives":[{"attributes":{"NORMAL":2,"POSITION":0,"TANGENT":1,"TEXCOORD_0":3},"indices":4,"material":0,"mode":4}]}],"nodes":[{"children":[1,2,3],"extensions":{},"name":"bomb"},{"extensions":{},"name":"anim"},{"extensions":{},"name":"snd"},{"children":[4,5,6],"extensions":{},"mesh":0,"name":"glow2"},{"extensions":{},"name":"CSGBox3D2"},{"extensions":{},"name":"CSGBox3D3"},{"extensions":{},"name":"CSGBox3D4"}],"scene":0,"scenes":[{"nodes":[0]}]}