{"accessors":[{"bufferView":0,"byteOffset":0,"componentType":5126,"count":36,"max":[0.5,0.5,0.5],"min":[-0.5,-0.5,-0.5],"normalized":false,"type":"VEC3"},{"bufferView":1,"byteOffset":0,"componentType":5126,"count":36,"max":[0,0,0.000076,-1],"min":[-1,-1,-1,-1],"normalized":false,"type":"VEC4"},{"bufferView":2,"byteOffset":0,"componentType":5126,"count":36,"max":[1,1,1],"min":[-1,-1,-1],"normalized":false,"type":"VEC3"},{"bufferView":3,"byteOffset":0,"componentType":5126,"count":36,"max":[1,1],"min":[0,0],"normalized":false,"type":"VEC2"},{"bufferView":4,"byteOffset":0,"componentType":5125,"count":36,"max":[35],"min":[0],"normalized":false,"type":"SCALAR"},{"bufferView":5,"byteOffset":0,"componentType":5126,"count":711,"max":[0.477297,1.077297,0.477297],"min":[-0.477297,0.122703,-0.477297],"normalized":false,"type":"VEC3"},{"bufferView":6,"byteOffset":0,"componentType":5126,"count":711,"max":[1,0.344758,1,-1],"min":[-1,-0.712374,-1,-1],"normalized":false,"type":"VEC4"},{"bufferView":7,"byteOffset":0,"componentType":5126,"count":711,"max":[1,0.707139,1],"min":[-1,-0.70715,-1],"normalized":false,"type":"VEC3"},{"bufferView":8,"byteOffset":0,"componentType":5126,"count":711,"max":[1,1],"min":[0,0],"normalized":false,"type":"VEC2"},{"bufferView":9,"byteOffset":0,"componentType":5125,"count":711,"max":[710],"min":[0],"normalized":false,"type":"SCALAR"},{"bufferView":10,"byteOffset":0,"componentType":5126,"count":7494,"max":[0.65,0.3,0.65],"min":[-0.65,-0.3,-0.65],"normalized":false,"type":"VEC3"},{"bufferView":11,"byteOffset":0,"componentType":5126,"count":7494,"max":[0.000092,0.017117,1,-1],"min":[-1,-1,-1,-1],"normalized":false,"type":"VEC4"},{"bufferView":12,"byteOffset":0,"componentType":5126,"count":7494,"max":[1,1,1],"min":[-1,-1,-1],"normalized":false,"type":"VEC3"},{"bufferView":13,"byteOffset":0,"componentType":5126,"count":7494,"max":[1,1],"min":[0,0],"normalized":false,"type":"VEC2"},{"bufferView":14,"byteOffset":0,"componentType":5125,"count":7494,"max":[7493],"min":[0],"normalized":false,"type":"SCALAR"}],"asset":{"generator":"Godot Engine v4.2.1.stable.official@b09f793f564a6c95dc76acc654b390e68441bd01","version":"2.0"},"bufferViews":[{"buffer":0,"byteLength":432,"byteOffset":0},{"buffer":0,"byteLength":576,"byteOffset":432},{"buffer":0,"byteLength":432,"byteOffset":1008},{"buffer":0,"byteLength":288,"byteOffset":1440},{"buffer":0,"byteLength":144,"byteOffset":1728},{"buffer":0,"byteLength":8532,"byteOffset":1872},{"buffer":0,"byteLength":11376,"byteOffset":10404},{"buffer":0,"byteLength":8532,"byteOffset":21780},{"buffer":0,"byteLength":5688,"byteOffset":30312},{"buffer":0,"byteLength":2844,"byteOffset":36000},{"buffer":0,"byteLength":89928,"byteOffset":38844},{"buffer":0,"byteLength":119904,"byteOffset":128772},{"buffer":0,"byteLength":89928,"byteOffset":248676},{"buffer":0,"byteLength":59952,"byteOffset":338604},{"buffer":0,"byteLength":29976,"byteOffset":398556}],"buffers":[{"byteLength":428532,"uri":"bomb0.bin"}],"extensionsUsed":["GODOT_single_root"],"materials":[{"extensions":{},"pbrMetallicRoughness":{"baseColorFactor":[0.99999988079071,0.99999988079071,0.99999988079071,1],"metallicFactor":0,"roughnessFactor":1}},{"extensions":{},"pbrMetallicRoughness":{"baseColorFactor":[0.99999988079071,0.99999988079071,0.99999988079071,1],"metallicFactor":0,"roughnessFactor":1}},{"extensions":{},"pbrMetallicRoughness":{"baseColorFactor":[0.99999988079071,0.99999988079071,0.99999988079071,1],"metallicFactor":0,"roughnessFactor":1}}],"meshes":[{"extras":{"targetNames":[]},"primitives":[{"attributes":{"NORMAL":2,"POSITION":0,"TANGENT":1,"TEXCOORD_0":3},"indices":4,"material":0,"mode":4}]},{"extras":{"targetNames":[]},"primitives":[{"attributes":{"NORMAL":7,"POSITION":5,"TANGENT":6,"TEXCOORD_0":8},"indices":9,"material":1,"mode":4}]},{"extras":{"targetNames":[]},"primitives":[{"attributes":{"NORMAL":12,"POSITION":10,"TANGENT":11,"TEXCOORD_0":13},"indices":14,"material":2,"mode":4}]}],"nodes":[{"children":[1,2,3,4,9],"extensions":{},"name":"bomb"},{"extensions":{},"name":"anim"},{"extensions":{},"name":"snd"},{"extensions":{},"mesh":0,"name":"hull2"},{"children":[5,6,7,8],"extensions":{},"mesh":1,"name":"antenna2"},{"extensions":{},"name":"CSGBox3D20","rotation":[0.270598083734512,0.653281569480896,0.27059805393219,0.653281450271606],"translation":[0,0.600000023841858,0]},{"extensions":{},"name":"CSGBox3D23","rotation":[-0.27059808373451,-0.6532815694809,0.27059805393219,0.653281450271606],"translation":[0,0.600000023841858,0]},{"extensions":{},"name":"CSGBox3D22","rotation":[0,0,0.382683455944061,0.923879563808441],"translation":[0,0.600000023841858,0]},{"extensions":{},"name":"CSGBox3D21","rotation":[0.382683455944061,0.923879563808441,-0.00000001672761,-0.00000004038402],"translation":[0,0.600000023841858,0]},{"children":[10,11,12,13,14,15,16,17,18,19,20,21,22,23,24,25,26,27],"extensions":{},"mesh":2,"name":"grid2"},{"extensions":{},"name":"CSGBox3D2","translation":[0,0.25,0.25]},{"extensions":{},"name":"CSGBox3D3","translation":[0,0.25,0]},{"extensions":{},"name":"CSGBox3D4","translation":[0,0.25,-0.25]},{"extensions":{},"name":"CSGBox3D5","translation":[0,-0.25,0.25]},{"extensions":{},"name":"CSGBox3D6","translation":[0,-0.25,0]},{"extensions":{},"name":"CSGBox3D7","translation":[0,-0.25,-0.25]},{"extensions":{},"name":"CSGBox3D8","translation":[0,0,0.25]},{"extensions":{},"name":"CSGBox3D9"},{"extensions":{},"name":"CSGBox3D10","translation":[0,0,-0.25]},{"extensions":{},"name":"CSGBox3D11","rotation":[0,0.70710676908493,0,0.70710676908493],"translation":[0.25,0.25,-0.0000000109278]},{"extensions":{},"name":"CSGBox3D12","rotation":[0,0.70710676908493,0,0.70710676908493],"translation":[0,0.25,0]},{"extensions":{},"name":"CSGBox3D13","rotation":[0,0.70710676908493,0,0.70710676908493],"translation":[-0.25,0.25,0.0000000109277999982282]},{"extensions":{},"name":"CSGBox3D14","rotation":[0,0.70710676908493,0,0.70710676908493],"translation":[0.25,-0.25,-0.0000000109278]},{"extensions":{},"name":"CSGBox3D15","rotation":[0,0.70710676908493,0,0.70710676908493],"translation":[0,-0.25,0]},{"extensions":{},"name":"CSGBox3D16","rotation":[0,0.70710676908493,0,0.70710676908493],"translation":[-0.25,-0.25,0.0000000109277999982282]},{"extensions":{},"name":"CSGBox3D17","rotation":[0,0.70710676908493,0,0.70710676908493],"translation":[0.25,0,-0.0000000109278]},{"extensions":{},"name":"CSGBox3D18","rotation":[0,0.70710676908493,0,0.70710676908493]},{"extensions":{},"name":"CSGBox3D19","rotation":[0,0.70710676908493,0,0.70710676908493],"translation":[-0.25,0,0.0000000109277999982282]}],"scene":0,"scenes":[{"nodes":[0]}]}