{"asset":{"version":"2.0","generator":"THREE.GLTFExporter"},"scenes":[{"name":"default","nodes":[0]}],"scene":0,"nodes":[{"mesh":0}],"bufferViews":[{"buffer":0,"byteOffset":0,"byteLength":15540,"target":34962,"byteStride":12},{"buffer":0,"byteOffset":15540,"byteLength":15540,"target":34962,"byteStride":12},{"buffer":0,"byteOffset":31080,"byteLength":10360,"target":34962,"byteStride":8},{"buffer":0,"byteOffset":41440,"byteLength":768,"target":34963},{"buffer":0,"byteOffset":42208,"byteLength":816,"target":34963},{"buffer":0,"byteOffset":43024,"byteLength":1992,"target":34963}],"buffers":[{"byteLength":45016,"uri":"data:application/octet-stream;base64,"}],"accessors":[{"bufferView":0,"componentType":5126,"count":1295,"max":[0,4,55.99980163574219],"min":[-36,-0.002871485659852624,-1.4201972727717095e-14],"type":"VEC3"},{"bufferView":1,"componentType":5126,"count":1295,"max":[1,1,1],"min":[-1,-1,-1],"type":"VEC3"},{"bufferView":2,"componentType":5126,"count":1295,"max":[1,1],"min":[0,0],"type":"VEC2"},{"bufferView":3,"componentType":5123,"count":384,"max":[339],"min":[0],"type":"SCALAR"},{"bufferView":4,"componentType":5123,"count":408,"max":[616],"min":[340],"type":"SCALAR"},{"bufferView":5,"componentType":5123,"count":996,"max":[1294],"min":[617],"type":"SCALAR"}],"materials":[{"pbrMetallicRoughness":{"metallicFactor":0,"roughnessFactor":1,"baseColorTexture":{"index":0}},"alphaMode":"MASK","alphaCutoff":0.01,"doubleSided":true,"name":"1"},{"pbrMetallicRoughness":{"metallicFactor":0,"roughnessFactor":1,"baseColorTexture":{"index":1}},"alphaMode":"MASK","alphaCutoff":0.01,"doubleSided":true,"name":"0"},{"pbrMetallicRoughness":{"metallicFactor":0,"roughnessFactor":1,"baseColorTexture":{"index":2}},"alphaMode":"MASK","alphaCutoff":0.01,"doubleSided":true,"name":"2"}],"textures":[{"sampler":0,"source":0,"name":"1"},{"sampler":1,"source":1,"name":"0"},{"sampler":2,"source":2,"name":"2"}],"samplers":[{"magFilter":9728,"minFilter":9728,"wrapS":33071,"wrapT":33071},{"magFilter":9728,"minFilter":9728,"wrapS":33071,"wrapT":33071},{"magFilter":9728,"minFilter":9728,"wrapS":33071,"wrapT":33071}],"images":[{"mimeType":"image/png","uri":"1.png"},{"mimeType":"image/png","uri":"0.png"},{"mimeType":"image/png","uri":"2.png"}],"meshes":[{"primitives":[{"mode":4,"attributes":{"POSITION":0,"NORMAL":1,"TEXCOORD_0":2},"indices":3,"material":0},{"mode":4,"attributes":{"POSITION":0,"NORMAL":1,"TEXCOORD_0":2},"indices":4,"material":1},{"mode":4,"attributes":{"POSITION":0,"NORMAL":1,"TEXCOORD_0":2},"indices":5,"material":2}]}]}