{"asset":{"version":"2.0","generator":"THREE.GLTFExporter"},"scenes":[{"name":"default","nodes":[0]}],"scene":0,"nodes":[{"mesh":0}],"bufferViews":[{"buffer":0,"byteOffset":0,"byteLength":2208,"target":34962,"byteStride":12},{"buffer":0,"byteOffset":2208,"byteLength":2208,"target":34962,"byteStride":12},{"buffer":0,"byteOffset":4416,"byteLength":1472,"target":34962,"byteStride":8},{"buffer":0,"byteOffset":5888,"byteLength":312,"target":34963},{"buffer":0,"byteOffset":6200,"byteLength":192,"target":34963}],"buffers":[{"byteLength":6392,"uri":"data:application/octet-stream;base64,"}],"accessors":[{"bufferView":0,"componentType":5126,"count":184,"max":[1.8152443337669322e-15,4,12],"min":[-16,-0.0011460863752290606,-0.00020000999211333692],"type":"VEC3"},{"bufferView":1,"componentType":5126,"count":184,"max":[1,1,1],"min":[-1,-0.00025003746850416064,-0.9999999403953552],"type":"VEC3"},{"bufferView":2,"componentType":5126,"count":184,"max":[1,1],"min":[0,0],"type":"VEC2"},{"bufferView":3,"componentType":5123,"count":156,"max":[105],"min":[0],"type":"SCALAR"},{"bufferView":4,"componentType":5123,"count":96,"max":[183],"min":[106],"type":"SCALAR"}],"materials":[{"pbrMetallicRoughness":{"metallicFactor":0,"roughnessFactor":1,"baseColorTexture":{"index":0}},"alphaMode":"MASK","alphaCutoff":0.01,"doubleSided":true,"name":"2"},{"pbrMetallicRoughness":{"metallicFactor":0,"roughnessFactor":1,"baseColorTexture":{"index":1}},"alphaMode":"MASK","alphaCutoff":0.01,"doubleSided":true,"name":"0"}],"textures":[{"sampler":0,"source":0,"name":"2"},{"sampler":1,"source":1,"name":"0"}],"samplers":[{"magFilter":9728,"minFilter":9728,"wrapS":33071,"wrapT":33071},{"magFilter":9728,"minFilter":9728,"wrapS":33071,"wrapT":33071}],"images":[{"mimeType":"image/png","uri":"2.png"},{"mimeType":"image/png","uri":"0.png"}],"meshes":[{"primitives":[{"mode":4,"attributes":{"POSITION":0,"NORMAL":1,"TEXCOORD_0":2},"indices":3,"material":0},{"mode":4,"attributes":{"POSITION":0,"NORMAL":1,"TEXCOORD_0":2},"indices":4,"material":1}]}]}