{"asset":{"version":"2.0","generator":"THREE.GLTFExporter"},"scenes":[{"name":"default","nodes":[0]}],"scene":0,"nodes":[{"name":"ceiling","extras":{"data":{"name":"ceiling","points":[{"name":"Origin","pos":{"x":0,"y":0,"z":0}}],"billboard":{"enabled":false,"y":false},"directional":{"enabled":false,"mode":"cameraAngle","angles":[]},"custom":[],"instances":[{"name":"ceiling","uuid":"A684F3BC-3035-4A32-843D-A1A23D1946E6","parent":null,"pos":{"x":25,"y":2,"z":-7},"rot":{"x":0,"y":0,"z":0,"order":"XYZ"},"sca":{"x":1,"y":1,"z":1},"custom":[]}]}},"mesh":0}],"bufferViews":[{"buffer":0,"byteOffset":0,"byteLength":36576,"target":34962,"byteStride":12},{"buffer":0,"byteOffset":36576,"byteLength":36576,"target":34962,"byteStride":12},{"buffer":0,"byteOffset":73152,"byteLength":24384,"target":34962,"byteStride":8},{"buffer":0,"byteOffset":97536,"byteLength":9468,"target":34963}],"buffers":[{"byteLength":107004,"uri":"data:application/octet-stream;base64,"}],"accessors":[{"bufferView":0,"componentType":5126,"count":3048,"max":[44,0,28],"min":[-120,-0.00013256072998046875,-96],"type":"VEC3"},{"bufferView":1,"componentType":5126,"count":3048,"max":[0.000033138523576781154,1,0.000033138523576781154],"min":[0,1,0],"type":"VEC3"},{"bufferView":2,"componentType":5126,"count":3048,"max":[1,1],"min":[0,0.75],"type":"VEC2"},{"bufferView":3,"componentType":5123,"count":4734,"max":[3047],"min":[0],"type":"SCALAR"}],"materials":[{"pbrMetallicRoughness":{"metallicFactor":0,"roughnessFactor":1,"baseColorTexture":{"index":0}},"alphaMode":"MASK","alphaCutoff":0.01,"doubleSided":true,"name":"0"}],"textures":[{"sampler":0,"source":0,"name":"0"}],"samplers":[{"magFilter":9728,"minFilter":9728,"wrapS":33071,"wrapT":33071}],"images":[{"mimeType":"image/png","uri":"0.png"}],"meshes":[{"primitives":[{"mode":4,"attributes":{"POSITION":0,"NORMAL":1,"TEXCOORD_0":2},"indices":3,"material":0}]}]}