{"asset":{"version":"2.0","generator":"THREE.GLTFExporter"},"scenes":[{"name":"default","nodes":[0]}],"scene":0,"nodes":[{"name":"ceiling","extras":{"data":{"name":"ceiling","points":[{"name":"Origin","pos":{"x":0,"y":0,"z":0}}],"billboard":{"enabled":false,"y":false},"directional":{"enabled":false,"mode":"cameraAngle","angles":[]},"custom":[],"instances":[{"name":"ceiling","uuid":"1255810D-975D-46AF-8627-E8140D8E73F7","parent":null,"pos":{"x":25,"y":2,"z":-7},"rot":{"x":0,"y":0,"z":0,"order":"XYZ"},"sca":{"x":1,"y":1,"z":1},"custom":[]}]}},"mesh":0}],"bufferViews":[{"buffer":0,"byteOffset":0,"byteLength":37080,"target":34962,"byteStride":12},{"buffer":0,"byteOffset":37080,"byteLength":37080,"target":34962,"byteStride":12},{"buffer":0,"byteOffset":74160,"byteLength":24720,"target":34962,"byteStride":8},{"buffer":0,"byteOffset":98880,"byteLength":9600,"target":34963}],"buffers":[{"byteLength":108480,"uri":"data:application/octet-stream;base64,"}],"accessors":[{"bufferView":0,"componentType":5126,"count":3090,"max":[44,0.00026702880859375,28],"min":[-120,-0.00013256072998046875,-96],"type":"VEC3"},{"bufferView":1,"componentType":5126,"count":3090,"max":[0.00006675386248389259,1,0.00009989738464355469],"min":[-0.0000667572021484375,1,-0.00006675386248389259],"type":"VEC3"},{"bufferView":2,"componentType":5126,"count":3090,"max":[1,1],"min":[0,0.75],"type":"VEC2"},{"bufferView":3,"componentType":5123,"count":4800,"max":[3089],"min":[0],"type":"SCALAR"}],"materials":[{"pbrMetallicRoughness":{"metallicFactor":0,"roughnessFactor":1,"baseColorTexture":{"index":0}},"alphaMode":"MASK","alphaCutoff":0.01,"doubleSided":true,"name":"0"}],"textures":[{"sampler":0,"source":0,"name":"0"}],"samplers":[{"magFilter":9728,"minFilter":9728,"wrapS":33071,"wrapT":33071}],"images":[{"mimeType":"image/png","uri":"0.png"}],"meshes":[{"primitives":[{"mode":4,"attributes":{"POSITION":0,"NORMAL":1,"TEXCOORD_0":2},"indices":3,"material":0}]}]}