{"asset":{"version":"2.0","generator":"THREE.GLTFExporter"},"scenes":[{"name":"default","nodes":[0]}],"scene":0,"nodes":[{"mesh":0}],"bufferViews":[{"buffer":0,"byteOffset":0,"byteLength":161700,"target":34962,"byteStride":12},{"buffer":0,"byteOffset":161700,"byteLength":161700,"target":34962,"byteStride":12},{"buffer":0,"byteOffset":323400,"byteLength":107800,"target":34962,"byteStride":8},{"buffer":0,"byteOffset":431200,"byteLength":107800,"target":34962,"byteStride":8},{"buffer":0,"byteOffset":539000,"byteLength":10800,"target":34963},{"buffer":0,"byteOffset":549800,"byteLength":17760,"target":34963},{"buffer":0,"byteOffset":567560,"byteLength":6432,"target":34963}],"buffers":[{"byteLength":573992,"uri":"data:application/octet-stream;base64,"}],"accessors":[{"bufferView":0,"componentType":5126,"count":13475,"max":[144.00001525878906,4,0.0002013181510847062],"min":[-32,-0.012462549842894077,-139.99819946289062],"type":"VEC3"},{"bufferView":1,"componentType":5126,"count":13475,"max":[1,1,1],"min":[-0.0059740920551121235,-0.0031090490520000458,-1],"type":"VEC3"},{"bufferView":2,"componentType":5126,"count":13475,"max":[1,1],"min":[0,0],"type":"VEC2"},{"bufferView":3,"componentType":5126,"count":13475,"max":[-1,0],"min":[-1,0],"type":"VEC2"},{"bufferView":4,"componentType":5123,"count":5400,"max":[4375],"min":[0],"type":"SCALAR"},{"bufferView":5,"componentType":5123,"count":8880,"max":[10910],"min":[4376],"type":"SCALAR"},{"bufferView":6,"componentType":5123,"count":3216,"max":[13474],"min":[10911],"type":"SCALAR"}],"materials":[{"pbrMetallicRoughness":{"metallicFactor":0,"roughnessFactor":1,"baseColorTexture":{"index":0}},"alphaMode":"MASK","alphaCutoff":0.01,"name":"1"},{"pbrMetallicRoughness":{"metallicFactor":0,"roughnessFactor":1,"baseColorTexture":{"index":1}},"alphaMode":"MASK","alphaCutoff":0.01,"doubleSided":true,"name":"0"},{"pbrMetallicRoughness":{"metallicFactor":0,"roughnessFactor":1,"baseColorTexture":{"index":2}},"alphaMode":"BLEND","doubleSided":true,"name":"2"}],"textures":[{"sampler":0,"source":0,"name":"1"},{"sampler":1,"source":1,"name":"0"},{"sampler":2,"source":2,"name":"2"}],"samplers":[{"magFilter":9728,"minFilter":9728,"wrapS":33071,"wrapT":33071},{"magFilter":9728,"minFilter":9728,"wrapS":33071,"wrapT":33071},{"magFilter":9728,"minFilter":9728,"wrapS":33071,"wrapT":33071}],"images":[{"mimeType":"image/png","uri":"1.png"},{"mimeType":"image/png","uri":"0.png"},{"mimeType":"image/png","uri":"2.png"}],"meshes":[{"primitives":[{"mode":4,"attributes":{"POSITION":0,"NORMAL":1,"TEXCOORD_0":2,"_UVANIMATION":3},"indices":4,"material":0},{"mode":4,"attributes":{"POSITION":0,"NORMAL":1,"TEXCOORD_0":2,"_UVANIMATION":3},"indices":5,"material":1},{"mode":4,"attributes":{"POSITION":0,"NORMAL":1,"TEXCOORD_0":2,"_UVANIMATION":3},"indices":6,"material":2}]}]}