{"asset":{"version":"2.0","generator":"THREE.GLTFExporter"},"scenes":[{"name":"default","nodes":[0]}],"scene":0,"nodes":[{"name":"Object 31475","extras":{"data":{"name":"Object 31475","points":[{"name":"Origin","pos":{"x":0,"y":0,"z":0}}],"billboard":{"enabled":false,"y":false},"directional":{"enabled":false,"mode":"cameraAngle","angles":[]},"custom":[],"instances":[{"name":"Object 31475","uuid":"E9E92BBA-8AC4-41E6-84C5-D05B39E14D47","parent":null,"pos":{"x":-5,"y":2,"z":0},"rot":{"x":0,"y":0,"z":0,"order":"XYZ"},"sca":{"x":1,"y":1,"z":1},"custom":[]}]}},"mesh":0}],"bufferViews":[{"buffer":0,"byteOffset":0,"byteLength":37032,"target":34962,"byteStride":12},{"buffer":0,"byteOffset":37032,"byteLength":37032,"target":34962,"byteStride":12},{"buffer":0,"byteOffset":74064,"byteLength":24688,"target":34962,"byteStride":8},{"buffer":0,"byteOffset":98752,"byteLength":24688,"target":34962,"byteStride":8},{"buffer":0,"byteOffset":123440,"byteLength":9588,"target":34963}],"buffers":[{"byteLength":133028,"uri":"data:application/octet-stream;base64,"}],"accessors":[{"bufferView":0,"componentType":5126,"count":3086,"max":[164,0,2.220446049250313e-16],"min":[0,0,-124],"type":"VEC3"},{"bufferView":1,"componentType":5126,"count":3086,"max":[0,1,0],"min":[0,1,0],"type":"VEC3"},{"bufferView":2,"componentType":5126,"count":3086,"max":[1,1],"min":[0,0.75],"type":"VEC2"},{"bufferView":3,"componentType":5126,"count":3086,"max":[-1,0],"min":[-1,0],"type":"VEC2"},{"bufferView":4,"componentType":5123,"count":4794,"max":[3085],"min":[0],"type":"SCALAR"}],"materials":[{"pbrMetallicRoughness":{"metallicFactor":0,"roughnessFactor":1,"baseColorTexture":{"index":0}},"alphaMode":"MASK","alphaCutoff":0.01,"doubleSided":true,"name":"0"}],"textures":[{"sampler":0,"source":0,"name":"0"}],"samplers":[{"magFilter":9728,"minFilter":9728,"wrapS":33071,"wrapT":33071}],"images":[{"mimeType":"image/png","uri":"0.png"}],"meshes":[{"primitives":[{"mode":4,"attributes":{"POSITION":0,"NORMAL":1,"TEXCOORD_0":2,"_UVANIMATION":3},"indices":4,"material":0}]}]}