{"asset":{"version":"2.0","generator":"THREE.GLTFExporter"},"scenes":[{"name":"default","nodes":[0]}],"scene":0,"nodes":[{"name":"Object 64627","extras":{"data":{"name":"Object 64627","points":[{"name":"Origin","pos":{"x":0,"y":0,"z":0}}],"billboard":{"enabled":false,"y":false},"directional":{"enabled":false,"mode":"cameraAngle","angles":[]},"custom":[],"instances":[{"name":"Object 64627","uuid":"7FADFED6-896E-48C1-9195-EE3A5F15ABE5","parent":null,"pos":{"x":0,"y":0,"z":0.5},"rot":{"x":0,"y":0,"z":0,"order":"XYZ"},"sca":{"x":1,"y":1,"z":1},"custom":[]}]}},"mesh":0}],"bufferViews":[{"buffer":0,"byteOffset":0,"byteLength":37032,"target":34962,"byteStride":12},{"buffer":0,"byteOffset":37032,"byteLength":37032,"target":34962,"byteStride":12},{"buffer":0,"byteOffset":74064,"byteLength":24688,"target":34962,"byteStride":8},{"buffer":0,"byteOffset":98752,"byteLength":9588,"target":34963}],"buffers":[{"byteLength":108340,"uri":"data:application/octet-stream;base64,"}],"accessors":[{"bufferView":0,"componentType":5126,"count":3086,"max":[144,8,-2],"min":[-20,8,-126],"type":"VEC3"},{"bufferView":1,"componentType":5126,"count":3086,"max":[0,1,0],"min":[0,1,0],"type":"VEC3"},{"bufferView":2,"componentType":5126,"count":3086,"max":[1,1],"min":[0,0.75],"type":"VEC2"},{"bufferView":3,"componentType":5123,"count":4794,"max":[3085],"min":[0],"type":"SCALAR"}],"materials":[{"pbrMetallicRoughness":{"metallicFactor":0,"roughnessFactor":1,"baseColorTexture":{"index":0}},"alphaMode":"MASK","alphaCutoff":0.01,"doubleSided":true,"name":"0"}],"textures":[{"sampler":0,"source":0,"name":"0"}],"samplers":[{"magFilter":9728,"minFilter":9728,"wrapS":33071,"wrapT":33071}],"images":[{"mimeType":"image/png","uri":"0.png"}],"meshes":[{"primitives":[{"mode":4,"attributes":{"POSITION":0,"NORMAL":1,"TEXCOORD_0":2},"indices":3,"material":0}]}]}