{"asset":{"version":"2.0","generator":"THREE.GLTFExporter"},"scenes":[{"name":"default","nodes":[0]}],"scene":0,"nodes":[{"name":"ceiling","extras":{"data":{"name":"ceiling","points":[{"name":"Origin","pos":{"x":0,"y":0,"z":0}}],"billboard":{"enabled":false,"y":false},"directional":{"enabled":false,"mode":"cameraAngle","angles":[]},"custom":[],"instances":[{"name":"ceiling","uuid":"D102B3D4-D568-4047-B659-5B4BA63E34F9","parent":null,"pos":{"x":0,"y":2,"z":37},"rot":{"x":0,"y":0,"z":0,"order":"XYZ"},"sca":{"x":1,"y":1,"z":1},"custom":[]}]}},"mesh":0}],"bufferViews":[{"buffer":0,"byteOffset":0,"byteLength":50016,"target":34962,"byteStride":12},{"buffer":0,"byteOffset":50016,"byteLength":50016,"target":34962,"byteStride":12},{"buffer":0,"byteOffset":100032,"byteLength":33344,"target":34962,"byteStride":8},{"buffer":0,"byteOffset":133376,"byteLength":11136,"target":34963}],"buffers":[{"byteLength":144512,"uri":"data:application/octet-stream;base64,"}],"accessors":[{"bufferView":0,"componentType":5126,"count":4168,"max":[132,0.019941329956054688,44.001007080078125],"min":[-64,0,-148],"type":"VEC3"},{"bufferView":1,"componentType":5126,"count":4168,"max":[0.0016699748812243342,1,0.0017903175903484225],"min":[-0.0016800699522718787,0.9999970197677612,-0.0014723370550200343],"type":"VEC3"},{"bufferView":2,"componentType":5126,"count":4168,"max":[1,1],"min":[0,0.75],"type":"VEC2"},{"bufferView":3,"componentType":5123,"count":5568,"max":[4167],"min":[0],"type":"SCALAR"}],"materials":[{"pbrMetallicRoughness":{"metallicFactor":0,"roughnessFactor":1,"baseColorTexture":{"index":0}},"alphaMode":"MASK","alphaCutoff":0.01,"doubleSided":true,"name":"2"}],"textures":[{"sampler":0,"source":0,"name":"2"}],"samplers":[{"magFilter":9728,"minFilter":9728,"wrapS":33071,"wrapT":33071}],"images":[{"mimeType":"image/png","uri":"2.png"}],"meshes":[{"primitives":[{"mode":4,"attributes":{"POSITION":0,"NORMAL":1,"TEXCOORD_0":2},"indices":3,"material":0}]}]}