{"asset":{"version":"2.0","generator":"THREE.GLTFExporter"},"scenes":[{"name":"default","nodes":[0]}],"scene":0,"nodes":[{"mesh":0}],"bufferViews":[{"buffer":0,"byteOffset":0,"byteLength":128868,"target":34962,"byteStride":12},{"buffer":0,"byteOffset":128868,"byteLength":128868,"target":34962,"byteStride":12},{"buffer":0,"byteOffset":257736,"byteLength":85912,"target":34962,"byteStride":8},{"buffer":0,"byteOffset":343648,"byteLength":7428,"target":34963},{"buffer":0,"byteOffset":351076,"byteLength":22448,"target":34963},{"buffer":0,"byteOffset":373524,"byteLength":3312,"target":34963}],"buffers":[{"byteLength":376836,"uri":"data:application/octet-stream;base64,"}],"accessors":[{"bufferView":0,"componentType":5126,"count":10739,"max":[132,4,192],"min":[-64,-8.971642873056851e-10,0],"type":"VEC3"},{"bufferView":1,"componentType":5126,"count":10739,"max":[1,1,1],"min":[-1,-1.7655036487160264e-22,-1],"type":"VEC3"},{"bufferView":2,"componentType":5126,"count":10739,"max":[1,1],"min":[0,0],"type":"VEC2"},{"bufferView":3,"componentType":5123,"count":3714,"max":[2327],"min":[0],"type":"SCALAR"},{"bufferView":4,"componentType":5123,"count":11223,"max":[9686],"min":[2328],"type":"SCALAR"},{"bufferView":5,"componentType":5123,"count":1656,"max":[10738],"min":[9687],"type":"SCALAR"}],"materials":[{"pbrMetallicRoughness":{"metallicFactor":0,"roughnessFactor":1,"baseColorTexture":{"index":0}},"alphaMode":"MASK","alphaCutoff":0.01,"doubleSided":true,"name":"1"},{"pbrMetallicRoughness":{"metallicFactor":0,"roughnessFactor":1,"baseColorTexture":{"index":1}},"alphaMode":"MASK","alphaCutoff":0.01,"doubleSided":true,"name":"2"},{"pbrMetallicRoughness":{"metallicFactor":0,"roughnessFactor":1,"baseColorTexture":{"index":2}},"alphaMode":"MASK","alphaCutoff":0.01,"doubleSided":true,"name":"0"}],"textures":[{"sampler":0,"source":0,"name":"1"},{"sampler":1,"source":1,"name":"2"},{"sampler":2,"source":2,"name":"0"}],"samplers":[{"magFilter":9728,"minFilter":9728,"wrapS":33071,"wrapT":33071},{"magFilter":9728,"minFilter":9728,"wrapS":33071,"wrapT":33071},{"magFilter":9728,"minFilter":9728,"wrapS":33071,"wrapT":33071}],"images":[{"mimeType":"image/png","uri":"1.png"},{"mimeType":"image/png","uri":"2.png"},{"mimeType":"image/png","uri":"0.png"}],"meshes":[{"primitives":[{"mode":4,"attributes":{"POSITION":0,"NORMAL":1,"TEXCOORD_0":2},"indices":3,"material":0},{"mode":4,"attributes":{"POSITION":0,"NORMAL":1,"TEXCOORD_0":2},"indices":4,"material":1},{"mode":4,"attributes":{"POSITION":0,"NORMAL":1,"TEXCOORD_0":2},"indices":5,"material":2}]}]}