{"asset":{"version":"2.0","generator":"THREE.GLTFExporter"},"scenes":[{"name":"default","nodes":[0]}],"scene":0,"nodes":[{"mesh":0}],"bufferViews":[{"buffer":0,"byteOffset":0,"byteLength":102840,"target":34962,"byteStride":12},{"buffer":0,"byteOffset":102840,"byteLength":102840,"target":34962,"byteStride":12},{"buffer":0,"byteOffset":205680,"byteLength":68560,"target":34962,"byteStride":8},{"buffer":0,"byteOffset":274240,"byteLength":23796,"target":34963}],"buffers":[{"byteLength":298036,"uri":"data:application/octet-stream;base64,"}],"accessors":[{"bufferView":0,"componentType":5126,"count":8570,"max":[132,4,200],"min":[-64,-0.020064236596226692,-0.00020000999211333692],"type":"VEC3"},{"bufferView":1,"componentType":5126,"count":8570,"max":[1,1,1],"min":[-1,-0.003436849918216467,-5.4136124531497295e-15],"type":"VEC3"},{"bufferView":2,"componentType":5126,"count":8570,"max":[1,0.875],"min":[0,0],"type":"VEC2"},{"bufferView":3,"componentType":5123,"count":11898,"max":[8569],"min":[0],"type":"SCALAR"}],"materials":[{"pbrMetallicRoughness":{"metallicFactor":0,"roughnessFactor":1,"baseColorTexture":{"index":0}},"alphaMode":"MASK","alphaCutoff":0.01,"doubleSided":true,"name":"2"}],"textures":[{"sampler":0,"source":0,"name":"2"}],"samplers":[{"magFilter":9728,"minFilter":9728,"wrapS":33071,"wrapT":33071}],"images":[{"mimeType":"image/png","uri":"2.png"}],"meshes":[{"primitives":[{"mode":4,"attributes":{"POSITION":0,"NORMAL":1,"TEXCOORD_0":2},"indices":3,"material":0}]}]}