{"asset":{"version":"2.0","generator":"THREE.GLTFExporter"},"scenes":[{"name":"default","nodes":[0]}],"scene":0,"nodes":[{"name":"Object 21561","extras":{"data":{"name":"Object 21561","points":[{"name":"Origin","pos":{"x":0,"y":0,"z":0}}],"billboard":{"enabled":false,"y":false},"directional":{"enabled":false,"mode":"cameraAngle","angles":[]},"custom":[],"instances":[{"name":"Object 21561","uuid":"479184CD-E13D-42E4-BBBC-6C6CCD88C1E4","parent":null,"pos":{"x":6,"y":2,"z":21},"rot":{"x":0,"y":0,"z":0,"order":"XYZ"},"sca":{"x":1,"y":1,"z":1},"custom":[]}]}},"mesh":0}],"bufferViews":[{"buffer":0,"byteOffset":0,"byteLength":55212,"target":34962,"byteStride":12},{"buffer":0,"byteOffset":55212,"byteLength":55212,"target":34962,"byteStride":12},{"buffer":0,"byteOffset":110424,"byteLength":36808,"target":34962,"byteStride":8},{"buffer":0,"byteOffset":147232,"byteLength":12288,"target":34963}],"buffers":[{"byteLength":159520,"uri":"data:application/octet-stream;base64,"}],"accessors":[{"bufferView":0,"componentType":5126,"count":4601,"max":[108,0.019941329956054688,116.00019836425781],"min":[-88,-0.00007200241088867188,-84],"type":"VEC3"},{"bufferView":1,"componentType":5126,"count":4601,"max":[0.00009583433711668476,1,0.000195065833395347],"min":[-0.00009512872929917648,1,0],"type":"VEC3"},{"bufferView":2,"componentType":5126,"count":4601,"max":[1,1],"min":[0,0.75],"type":"VEC2"},{"bufferView":3,"componentType":5123,"count":6144,"max":[4600],"min":[0],"type":"SCALAR"}],"materials":[{"pbrMetallicRoughness":{"metallicFactor":0,"roughnessFactor":1,"baseColorTexture":{"index":0}},"alphaMode":"MASK","alphaCutoff":0.01,"doubleSided":true,"name":"2"}],"textures":[{"sampler":0,"source":0,"name":"2"}],"samplers":[{"magFilter":9728,"minFilter":9728,"wrapS":33071,"wrapT":33071}],"images":[{"mimeType":"image/png","uri":"2.png"}],"meshes":[{"primitives":[{"mode":4,"attributes":{"POSITION":0,"NORMAL":1,"TEXCOORD_0":2},"indices":3,"material":0}]}]}