# MagicaVoxel @ Ephtracy

# group
o heart-armor

# material
mtllib heart-armor.mtl
usemtl palette

# normals
vn -1 0 0
vn 1 0 0
vn 0 0 1
vn 0 0 -1
vn 0 -1 0
vn 0 1 0

# texcoords
vt 0.427734 0.5
vt 0.451172 0.5
vt 0.595703 0.5
vt 0.763672 0.5
vt 0.876953 0.5

# verts
v -0.3 0 0
v -0.3 0 -0.3
v -0.3 0.1 0
v -0.3 0.1 -0.3
v -0.2 0 0.1
v -0.2 0 0
v -0.2 0 -0.3
v -0.2 0 -0.4
v -0.2 0.1 0.1
v -0.2 0.1 0
v -0.2 0.1 -0.3
v -0.2 0.1 -0.4
v -0.1 0 0.2
v -0.1 0 0.1
v -0.1 0.1 0.2
v -0.1 0.1 0.1
v 0 0 0.3
v 0 0 0.2
v 0 0.1 0.3
v 0 0.1 0.2
v 0.1 0 -0.3
v 0.1 0 -0.4
v 0.1 0.1 -0.3
v 0.1 0.1 -0.4
v 0 0 -0.3
v 0 0 -0.4
v 0 0.1 -0.3
v 0 0.1 -0.4
v 0.1 0 0.3
v 0.1 0 0.2
v 0.1 0.1 0.3
v 0.1 0.1 0.2
v 0.2 0 0.2
v 0.2 0 0.1
v 0.2 0.1 0.2
v 0.2 0.1 0.1
v 0.3 0 0.1
v 0.3 0 0
v 0.3 0 -0.3
v 0.3 0 -0.4
v 0.3 0.1 0.1
v 0.3 0.1 0
v 0.3 0.1 -0.3
v 0.3 0.1 -0.4
v 0.4 0 0
v 0.4 0 -0.3
v 0.4 0.1 0
v 0.4 0.1 -0.3
v 0 0 0.3
v 0 0.1 0.3
v 0.1 0 0.3
v 0.1 0.1 0.3
v -0.1 0 0.2
v -0.1 0.1 0.2
v 0 0 0.2
v 0 0.1 0.2
v 0.1 0 0.2
v 0.1 0.1 0.2
v 0.2 0 0.2
v 0.2 0.1 0.2
v -0.2 0 0.1
v -0.2 0.1 0.1
v -0.1 0 0.1
v -0.1 0.1 0.1
v 0.2 0 0.1
v 0.2 0.1 0.1
v 0.3 0 0.1
v 0.3 0.1 0.1
v -0.3 0 0
v -0.3 0.1 0
v -0.2 0 0
v -0.2 0.1 0
v 0.3 0 0
v 0.3 0.1 0
v 0.4 0 0
v 0.4 0.1 0
v -0.3 0 -0.3
v -0.3 0.1 -0.3
v -0.2 0 -0.3
v -0.2 0.1 -0.3
v 0 0 -0.3
v 0 0.1 -0.3
v 0.1 0 -0.3
v 0.1 0.1 -0.3
v 0.3 0 -0.3
v 0.3 0.1 -0.3
v 0.4 0 -0.3
v 0.4 0.1 -0.3
v -0.2 0 -0.4
v -0.2 0.1 -0.4
v 0 0 -0.4
v 0 0.1 -0.4
v 0.1 0 -0.4
v 0.1 0.1 -0.4
v 0.3 0 -0.4
v 0.3 0.1 -0.4
v 0 0 0.3
v 0.1 0 0.3
v -0.1 0 0.2
v 0 0 0.2
v 0.1 0 0.2
v 0.2 0 0.2
v -0.2 0 0.1
v -0.1 0 0.1
v 0 0 0.1
v 0.1 0 0.1
v 0.2 0 0.1
v 0.3 0 0.1
v -0.3 0 0
v -0.2 0 0
v -0.1 0 0
v 0 0 0
v 0.1 0 0
v 0.2 0 0
v 0.3 0 0
v 0.4 0 0
v -0.2 0 -0.1
v -0.1 0 -0.1
v 0 0 -0.1
v 0.2 0 -0.1
v 0.3 0 -0.1
v -0.2 0 -0.2
v -0.1 0 -0.2
v 0 0 -0.2
v 0.1 0 -0.2
v 0.2 0 -0.2
v 0.3 0 -0.2
v -0.3 0 -0.3
v -0.2 0 -0.3
v -0.1 0 -0.3
v 0 0 -0.3
v 0.1 0 -0.3
v 0.2 0 -0.3
v 0.3 0 -0.3
v 0.4 0 -0.3
v -0.2 0 -0.4
v 0 0 -0.4
v 0.1 0 -0.4
v 0.3 0 -0.4
v 0 0.1 0.3
v 0.1 0.1 0.3
v -0.1 0.1 0.2
v 0 0.1 0.2
v 0.1 0.1 0.2
v 0.2 0.1 0.2
v -0.2 0.1 0.1
v -0.1 0.1 0.1
v 0 0.1 0.1
v 0.1 0.1 0.1
v 0.2 0.1 0.1
v 0.3 0.1 0.1
v -0.3 0.1 0
v -0.2 0.1 0
v -0.1 0.1 0
v 0 0.1 0
v 0.1 0.1 0
v 0.2 0.1 0
v 0.3 0.1 0
v 0.4 0.1 0
v -0.2 0.1 -0.1
v -0.1 0.1 -0.1
v 0 0.1 -0.1
v 0.2 0.1 -0.1
v 0.3 0.1 -0.1
v -0.2 0.1 -0.2
v -0.1 0.1 -0.2
v 0 0.1 -0.2
v 0.1 0.1 -0.2
v 0.2 0.1 -0.2
v 0.3 0.1 -0.2
v -0.3 0.1 -0.3
v -0.2 0.1 -0.3
v -0.1 0.1 -0.3
v 0 0.1 -0.3
v 0.1 0.1 -0.3
v 0.2 0.1 -0.3
v 0.3 0.1 -0.3
v 0.4 0.1 -0.3
v -0.2 0.1 -0.4
v 0 0.1 -0.4
v 0.1 0.1 -0.4
v 0.3 0.1 -0.4

# faces
f 3/5/1 2/5/1 1/5/1
f 4/5/1 2/5/1 3/5/1
f 9/5/1 6/5/1 5/5/1
f 10/5/1 6/5/1 9/5/1
f 11/5/1 8/5/1 7/5/1
f 12/5/1 8/5/1 11/5/1
f 15/5/1 14/5/1 13/5/1
f 16/5/1 14/5/1 15/5/1
f 19/5/1 18/5/1 17/5/1
f 20/5/1 18/5/1 19/5/1
f 23/5/1 22/5/1 21/5/1
f 24/5/1 22/5/1 23/5/1
f 25/5/2 26/5/2 27/5/2
f 27/5/2 26/5/2 28/5/2
f 29/5/2 30/5/2 31/5/2
f 31/5/2 30/5/2 32/5/2
f 33/5/2 34/5/2 35/5/2
f 35/5/2 34/5/2 36/5/2
f 37/5/2 38/5/2 41/5/2
f 41/5/2 38/5/2 42/5/2
f 39/5/2 40/5/2 43/5/2
f 43/5/2 40/5/2 44/5/2
f 45/5/2 46/5/2 47/5/2
f 47/5/2 46/5/2 48/5/2
f 51/5/3 50/5/3 49/5/3
f 52/5/3 50/5/3 51/5/3
f 55/5/3 54/5/3 53/5/3
f 56/5/3 54/5/3 55/5/3
f 59/5/3 58/5/3 57/5/3
f 60/5/3 58/5/3 59/5/3
f 63/5/3 62/5/3 61/5/3
f 64/5/3 62/5/3 63/5/3
f 67/5/3 66/5/3 65/5/3
f 68/5/3 66/5/3 67/5/3
f 71/5/3 70/5/3 69/5/3
f 72/5/3 70/5/3 71/5/3
f 75/5/3 74/5/3 73/5/3
f 76/5/3 74/5/3 75/5/3
f 77/5/4 78/5/4 79/5/4
f 79/5/4 78/5/4 80/5/4
f 81/5/4 82/5/4 83/5/4
f 83/5/4 82/5/4 84/5/4
f 85/5/4 86/5/4 87/5/4
f 87/5/4 86/5/4 88/5/4
f 89/5/4 90/5/4 91/5/4
f 91/5/4 90/5/4 92/5/4
f 93/5/4 94/5/4 95/5/4
f 95/5/4 94/5/4 96/5/4
f 100/5/5 98/5/5 97/5/5
f 101/5/5 98/5/5 100/5/5
f 104/5/5 100/5/5 99/5/5
f 105/4/5 101/4/5 100/4/5
f 105/5/5 100/5/5 104/5/5
f 106/5/5 102/5/5 101/5/5
f 106/4/5 101/4/5 105/4/5
f 107/5/5 102/5/5 106/5/5
f 110/5/5 104/5/5 103/5/5
f 111/4/5 105/4/5 104/4/5
f 111/5/5 104/5/5 110/5/5
f 112/3/5 106/3/5 105/3/5
f 112/4/5 105/4/5 111/4/5
f 113/4/5 107/4/5 106/4/5
f 113/3/5 106/3/5 112/3/5
f 114/5/5 108/5/5 107/5/5
f 114/4/5 107/4/5 113/4/5
f 115/5/5 108/5/5 114/5/5
f 117/5/5 110/5/5 109/5/5
f 117/4/5 111/4/5 110/4/5
f 118/3/5 113/3/5 112/3/5
f 118/4/5 111/4/5 117/4/5
f 118/3/5 115/3/5 114/3/5
f 118/3/5 114/3/5 113/3/5
f 118/3/5 112/3/5 111/3/5
f 119/3/5 115/3/5 118/3/5
f 120/3/5 115/3/5 119/3/5
f 121/5/5 116/5/5 115/5/5
f 121/3/5 115/3/5 120/3/5
f 122/5/5 117/5/5 109/5/5
f 122/3/5 118/3/5 117/3/5
f 123/2/5 119/2/5 118/2/5
f 123/3/5 118/3/5 122/3/5
f 124/3/5 120/3/5 119/3/5
f 124/2/5 119/2/5 123/2/5
f 125/3/5 120/3/5 124/3/5
f 126/2/5 121/2/5 120/2/5
f 126/3/5 120/3/5 125/3/5
f 127/5/5 116/5/5 121/5/5
f 127/2/5 121/2/5 126/2/5
f 128/5/5 122/5/5 109/5/5
f 129/2/5 123/2/5 122/2/5
f 129/5/5 122/5/5 128/5/5
f 130/1/5 124/1/5 123/1/5
f 130/2/5 123/2/5 129/2/5
f 131/5/5 125/5/5 124/5/5
f 131/1/5 124/1/5 130/1/5
f 132/2/5 126/2/5 125/2/5
f 132/5/5 125/5/5 131/5/5
f 133/1/5 127/1/5 126/1/5
f 133/2/5 126/2/5 132/2/5
f 134/5/5 116/5/5 127/5/5
f 134/1/5 127/1/5 133/1/5
f 135/5/5 116/5/5 134/5/5
f 136/5/5 131/5/5 130/5/5
f 136/5/5 130/5/5 129/5/5
f 137/5/5 131/5/5 136/5/5
f 138/5/5 134/5/5 133/5/5
f 138/5/5 133/5/5 132/5/5
f 139/5/5 134/5/5 138/5/5
f 140/5/6 141/5/6 143/5/6
f 143/5/6 141/5/6 144/5/6
f 142/5/6 143/5/6 147/5/6
f 143/4/6 144/4/6 148/4/6
f 147/5/6 143/5/6 148/5/6
f 144/5/6 145/5/6 149/5/6
f 148/4/6 144/4/6 149/4/6
f 149/5/6 145/5/6 150/5/6
f 146/5/6 147/5/6 153/5/6
f 147/4/6 148/4/6 154/4/6
f 153/5/6 147/5/6 154/5/6
f 148/3/6 149/3/6 155/3/6
f 154/4/6 148/4/6 155/4/6
f 149/4/6 150/4/6 156/4/6
f 155/3/6 149/3/6 156/3/6
f 150/5/6 151/5/6 157/5/6
f 156/4/6 150/4/6 157/4/6
f 157/5/6 151/5/6 158/5/6
f 152/5/6 153/5/6 160/5/6
f 153/4/6 154/4/6 160/4/6
f 155/3/6 156/3/6 161/3/6
f 160/4/6 154/4/6 161/4/6
f 157/3/6 158/3/6 161/3/6
f 156/3/6 157/3/6 161/3/6
f 154/3/6 155/3/6 161/3/6
f 161/3/6 158/3/6 162/3/6
f 162/3/6 158/3/6 163/3/6
f 158/5/6 159/5/6 164/5/6
f 163/3/6 158/3/6 164/3/6
f 152/5/6 160/5/6 165/5/6
f 160/3/6 161/3/6 165/3/6
f 161/2/6 162/2/6 166/2/6
f 165/3/6 161/3/6 166/3/6
f 162/3/6 163/3/6 167/3/6
f 166/2/6 162/2/6 167/2/6
f 167/3/6 163/3/6 168/3/6
f 163/2/6 164/2/6 169/2/6
f 168/3/6 163/3/6 169/3/6
f 164/5/6 159/5/6 170/5/6
f 169/2/6 164/2/6 170/2/6
f 152/5/6 165/5/6 171/5/6
f 165/2/6 166/2/6 172/2/6
f 171/5/6 165/5/6 172/5/6
f 166/1/6 167/1/6 173/1/6
f 172/2/6 166/2/6 173/2/6
f 167/5/6 168/5/6 174/5/6
f 173/1/6 167/1/6 174/1/6
f 168/2/6 169/2/6 175/2/6
f 174/5/6 168/5/6 175/5/6
f 169/1/6 170/1/6 176/1/6
f 175/2/6 169/2/6 176/2/6
f 170/5/6 159/5/6 177/5/6
f 176/1/6 170/1/6 177/1/6
f 177/5/6 159/5/6 178/5/6
f 173/5/6 174/5/6 179/5/6
f 172/5/6 173/5/6 179/5/6
f 179/5/6 174/5/6 180/5/6
f 176/5/6 177/5/6 181/5/6
f 175/5/6 176/5/6 181/5/6
f 181/5/6 177/5/6 182/5/6
